<svg xmlns="http://www.w3.org/2000/svg" viewBox="0 0 260 110.58"><defs><style>.cls-1,.cls-2{fill:#003583;}.cls-2{fill-rule:evenodd;}.cls-3{fill:#fbe800;}.cls-4{fill:#c2350e;}.cls-5{font-size:18px;font-family:Arimo-Bold, Arimo;font-weight:700;letter-spacing:0.08em;}.cls-6{letter-spacing:0em;}.cls-7{letter-spacing:0.04em;}.cls-8{letter-spacing:0.04em;}.cls-9{letter-spacing:0.07em;}</style></defs><title>b5Recurso 28</title><g id="Capa_2" data-name="Capa 2"><g id="Capa_1-2" data-name="Capa 1"><path class="cls-1" d="M42.67,38.67l0,21.18,5.6.08,0-12s.21-5.11,4.07-6c0,0,3.2-.88,3.66,2.4l.12,15.54,5.48,0,0-17.4S61.35,37,55,37.13c0,0-5.36-.33-7.43,4.65l.16-4.19-5.1,1.08Z"/><path class="cls-1" d="M79.66,37.79,79,42.66s-5.79-1.69-7.57.55c0,0-2.52,2.81-1.64,8.12,0,0,.83,5.08,6.56,4l3-.76.24,4.73a16.5,16.5,0,0,1-7.35,1.12A9.16,9.16,0,0,1,64.14,53c-1.58-8.13,2.57-12.62,2.57-12.62a11.4,11.4,0,0,1,8.14-3.12h.58l4.23.5Z"/><path class="cls-2" d="M33.69,50.1s-5.81-.34-7.12,2.17a2.51,2.51,0,0,0,.2,2.95c1.2,1.48,3.68.77,3.68.77a3.83,3.83,0,0,0,3.06-3l.21-.8,0-2.06ZM22.62,38.55v4.58s3.84-1.83,6.69-1.66c0,0,3.55-.09,4.29,2.17l0,2.89s-8.06-.34-10,2.31a7.53,7.53,0,0,0-1.92,9.24,6.11,6.11,0,0,0,5.15,2.42,7.22,7.22,0,0,0,7.15-4.08l.2-.12,0,3.69,5.23-.05L39.32,43.3s-.38-4.86-5.09-5.83c0,0-5.95-1.23-10.64.6l-1,.48Z"/><path class="cls-2" d="M5.36,47.24v8.23l5.28,0a4.42,4.42,0,0,0,3.24-3.71,4.12,4.12,0,0,0-3.11-4.42l-5.41-.13Zm0-12.07,0,7.9h4s3.77-.44,4.06-3.78a3.89,3.89,0,0,0-2.95-4.09l-5.07,0ZM0,31V60l10.7-.1s8.37-.46,8.7-7.1c0,0,1.16-7.07-4.95-8.22a7.13,7.13,0,0,0,4.45-6.16s.44-6.26-6.63-7.43Z"/><path class="cls-2" d="M92.33,41.86A5,5,0,0,0,87,46.18c-.78,4-.09,7.64,2.49,9,0,0,2.82,1.08,4.81-.21s2.75-3.9,2.41-8.76a4.38,4.38,0,0,0-4.07-4.32ZM92,37.06s-10.46.11-10.91,11.16S87.85,60.56,91.5,60.43c3.11-.1,11-2.12,11-12s-5.36-10.71-10-11.33Z"/><path class="cls-2" d="M124,41.86a5,5,0,0,0-5.31,4.32c-.78,4-.08,7.64,2.49,9,0,0,2.82,1.08,4.82-.21s2.75-3.9,2.41-8.76a4.38,4.38,0,0,0-4.07-4.32Zm-.34-4.8s-10.45.11-10.91,11.16,6.77,12.34,10.42,12.21c3.12-.1,11-2.12,11-12s-5.36-10.71-10-11.33Z"/><path class="cls-2" d="M214.19,50.1s-5.81-.34-7.12,2.17a2.51,2.51,0,0,0,.2,2.95c1.2,1.48,3.69.77,3.69.77A3.84,3.84,0,0,0,214,53l.2-.8,0-2.06ZM203.12,38.55v4.58s3.84-1.83,6.69-1.66c0,0,3.55-.09,4.29,2.17l0,2.89s-8.06-.34-9.95,2.31a7.52,7.52,0,0,0-1.91,9.24,6.09,6.09,0,0,0,5.14,2.42,7.22,7.22,0,0,0,7.15-4.08l.19-.12,0,3.69,5.23-.05-.15-16.64s-.36-4.86-5.08-5.83c0,0-5.95-1.23-10.63.6l-1,.48Z"/><polygon class="cls-1" points="104.92 29.94 110.42 28.57 110.47 59.88 104.97 59.88 104.92 29.94 104.92 29.94"/><path class="cls-1" d="M136.86,38.67l5.1-1.08-.16,4.19c2.07-5,7.43-4.65,7.43-4.65,4-.08,5.63,2.13,6.27,3.75,2.31-4,7-3.75,7-3.75,6.31-.13,6.68,5.4,6.68,5.4l0,17.4-5.48,0-.13-15.54c-.45-3.28-3.65-2.4-3.65-2.4-2.89.65-3.73,3.66-4,5.14l0,12.84h-.1l-5.38,0-.12-15.54c-.46-3.28-3.66-2.4-3.66-2.4-3.86.87-4.07,6-4.07,6l0,12-5.6-.08,0-21.18Z"/><path class="cls-2" d="M177.61,55.71l.08-9a4.78,4.78,0,0,1,3.95-4s2.78-.77,3.76,3.21a12.64,12.64,0,0,1,0,5.87s-.6,3.25-2.89,3.91a11.7,11.7,0,0,1-4.57.13l-.38-.09Zm-.09-27.18s-4.23.56-5.45,1.39l0,29.3s7,1.53,12.44.6c0,0,7.58-1.67,6.9-12.41,0,0,.65-8.88-7.61-9.31,0,0-4.7-.17-6.36,3.6l.12-13.17Z"/><path class="cls-1" d="M199.64,37.69V59.8l-6.06,0,0-22.06Zm-6.37-6.57a3.55,3.55,0,1,1,3.55,3.51,3.53,3.53,0,0,1-3.55-3.51Z"/><path class="cls-1" d="M214,4.7C215,4,228.79-.69,249.37.09a2.85,2.85,0,0,1,2.1,1.52l2.1,4.51s1.14,1.45-.6,1.5c0,0-15.46.94-20.3,1.79s-14.73,3.36-14.73,3.36-1.42.44-2.05-.41l-2.31-6.2S213,5.42,214,4.7Z"/><path class="cls-3" d="M207,19.54c1-.72,27.69-10,48.28-9.19,0,0,1,0,1.63,1.3l2.29,6s.73,1.43-1.11,1.84c0,0-20.65,3.75-26.37,5.24-7.59,1.88-20.54,6.36-20.54,6.36a2.16,2.16,0,0,1-2.62-1l-2.08-7.61s-.49-2.2.52-2.93Z"/><path class="cls-4" d="M225.52,29.24c1-.73,8.71-3.41,28.95-7.14,0,0,2.16-.47,2.78.88l2.61,7.51s.83,1.71-1.56,2.68c0,0-8.18,3.14-12.84,4.73-5.23,1.78-14.08,5.49-14.08,5.49a2.24,2.24,0,0,1-3-1.6l-3.56-10.61a1.87,1.87,0,0,1,.68-1.94Z"/><text class="cls-5" transform="translate(67.52 82.2)">50477616713<tspan x="-48.66" y="21.6">CUEN</tspan><tspan class="cls-6" x="7.74" y="21.6">T</tspan><tspan class="cls-7" x="18.75" y="21.6">A</tspan><tspan x="32.43" y="21.6" xml:space="preserve"> DE</tspan><tspan class="cls-8" x="66.49" y="21.6"> </tspan><tspan class="cls-9" x="72.17" y="21.6">AHORROS</tspan></text></g></g></svg>