<svg xmlns="http://www.w3.org/2000/svg" viewBox="0 0 260 153.18"><defs><style>.cls-1{fill:#004279;}.cls-2{font-size:18px;font-family:Arimo-Bold, Arimo;font-weight:700;letter-spacing:0.08em;}.cls-3{letter-spacing:0em;}.cls-4{letter-spacing:0.04em;}</style></defs><title>b3Recurso 26</title><g id="Capa_2" data-name="Capa 2"><g id="Capa_1-2" data-name="Capa 1"><path class="cls-1" d="M222.92,0h.86c1,.64,1.39,1.85,1.95,2.86l23.08,43.19c3.72,7,7.51,14,11.19,21v.14c-.22.39-.39,1-1,1-3.74,0-7.48,0-11.22,0-.89,0-1.13-1-1.47-1.58-.68-1.29-1.42-2.55-2-3.87-1-1.78-1.87-3.68-2.92-5.46-.81-1.76-1.85-3.39-2.66-5.15-.5-1.06-1.16-2-1.66-3.1-.74-1.58-1.69-3.05-2.41-4.64-1.07-1.87-2-3.84-3-5.71-.76-1.68-1.76-3.22-2.53-4.89-.53-1.15-1.25-2.21-1.78-3.36-.7-1.5-1.62-2.88-2.28-4.39-.33-.59-.55-1.4-1.25-1.63-.44,0-1.07-.15-1.32.33-1.16,1.87-2,3.91-3.14,5.81-.8,1.76-1.85,3.39-2.66,5.15-.48,1-1.11,2-1.59,3-.37.77-.74,1.53-1.18,2.26-.77,1.29-1.31,2.71-2.09,4-.68,1.13-1.16,2.36-1.84,3.49s-1.2,2.45-1.9,3.62c-.8,1.34-1.36,2.79-2.17,4.12-.67,1.14-1.15,2.37-1.83,3.5s-1.2,2.45-1.9,3.62-1.31,2.62-2,3.89c-.24.38-.47.86-.95,1a13.57,13.57,0,0,1-2.21.06c-2.86,0-5.72,0-8.58,0a1.8,1.8,0,0,1-1.49-.45,2,2,0,0,1,.19-1.44q17.49-32.78,35-65.55a2.31,2.31,0,0,1,.82-.76ZM0,10.5c.8-.85,2-.57,3.05-.6H34.27a23.81,23.81,0,0,1,9,1.43A17.13,17.13,0,0,1,53.87,21.92a21.37,21.37,0,0,1,1,5.89,19.67,19.67,0,0,1-1.18,6.26,13.74,13.74,0,0,1-4.42,6.06c-.5.48-1.27.69-1.64,1.29a15.58,15.58,0,0,1,6.91,5.18c2.94,3.84,3.75,8.92,3.26,13.63A20.64,20.64,0,0,1,55,69.11a16,16,0,0,1-4,4.34A25.21,25.21,0,0,1,38.7,77.79a20,20,0,0,0-2.67.3H.79a5,5,0,0,1-.79-.8V10.52m11.71,9.76a2.34,2.34,0,0,0-.26,1.45c0,5.06,0,10.13,0,15.19a1.58,1.58,0,0,0,1.29.62c6.73,0,13.46,0,20.19,0a15.43,15.43,0,0,0,2.78-.29,9.47,9.47,0,0,0,5.65-2.71,7.85,7.85,0,0,0,1.79-3.71,9.3,9.3,0,0,0,.12-3.24,8.3,8.3,0,0,0-2.12-5,11.39,11.39,0,0,0-6.33-2.6,20.13,20.13,0,0,1-2.2-.11,13.94,13.94,0,0,0-2.74-.11c-5.52,0-11,0-16.57,0a3.17,3.17,0,0,0-1.64.46m.37,27.42a.68.68,0,0,0-.5.44,5.23,5.23,0,0,0-.32,2.54c0,5.21,0,10.42,0,15.63,0,.74.43,1.8,1.33,1.71H33.92a10.13,10.13,0,0,0,2.13-.13,15,15,0,0,0,7.2-2.16,8,8,0,0,0,3-5.18,14.32,14.32,0,0,0-.37-7,7.26,7.26,0,0,0-3.45-4.16,17.76,17.76,0,0,0-7.17-1.78H12.78a2.72,2.72,0,0,0-.7.06ZM69.41,10a17.45,17.45,0,0,1,2.4-.06h33.13a20.87,20.87,0,0,1,13.67,5.56,16.85,16.85,0,0,1,4.79,10.25c0,1.51.07,3,0,4.53A14.74,14.74,0,0,1,119.18,39a10.18,10.18,0,0,1-2.31,1.88c-.18.15-.57.22-.45.53A16.13,16.13,0,0,1,123.49,47a18.35,18.35,0,0,1,1.81,3.35,21.15,21.15,0,0,1,1.37,7.4A34.06,34.06,0,0,1,126,63.5a17.12,17.12,0,0,1-4.79,8.73,24.33,24.33,0,0,1-3.07,2.27,26.12,26.12,0,0,1-10.29,3.25c-1,.17-2,.08-3,.34H69.58a1.66,1.66,0,0,1-1-1.52V11.42A1.67,1.67,0,0,1,69.41,10m11.8,9.94a1.33,1.33,0,0,0-1,.56A2.86,2.86,0,0,0,80,22.12c0,4.63,0,9.27,0,13.9a1.8,1.8,0,0,0,.83,1.47c1.37.12,2.75,0,4.13,0h17.52A13.79,13.79,0,0,0,108.18,36a7,7,0,0,0,3.49-4.31,14.77,14.77,0,0,0,.3-4.45,9.32,9.32,0,0,0-.94-3.05,9.08,9.08,0,0,0-6.64-4c-1-.26-2.11-.05-3.14-.26a12.86,12.86,0,0,0-2.4-.09c-5.65,0-11.3,0-16.95,0a3.83,3.83,0,0,0-.69.08m-.39,27.8A1.18,1.18,0,0,0,80,49V65.35a5.41,5.41,0,0,0,.2,2.08c.13.47.7.57,1.13.58H103c.95,0,1.89-.2,2.84-.24a12.5,12.5,0,0,0,6.82-2.66,9,9,0,0,0,2.37-5.66,7.89,7.89,0,0,0,0-3.1c-.18-2.32-1-4.8-2.91-6.24-2.33-1.8-5.35-2.22-8.19-2.48H82.28a7.93,7.93,0,0,0-1.46.06Zm46.24-36.4a1.07,1.07,0,0,1,1.08-1.45c3.56,0,7.12,0,10.68,0a1.06,1.06,0,0,1,1.09.44,36.45,36.45,0,0,1,2.21,4.08c.43.89,1,1.71,1.4,2.6.8,1.71,1.82,3.31,2.6,5,1,1.78,1.88,3.68,2.93,5.46.9,1.93,2,3.73,2.91,5.66.77,1.35,1.48,2.74,2.18,4.13.88,1.43,1.5,3,2.38,4.46.61,1.06,1.07,2.21,1.7,3.26.8,1.33,1.36,2.79,2.16,4.12s1.34,2.81,2.19,4.11a1.22,1.22,0,0,0,2,0c.85-1.3,1.39-2.77,2.18-4.11.71-1.16,1.21-2.44,1.91-3.62s1.36-2.79,2.16-4.12,1.41-2.87,2.25-4.23c1-2,2.15-4,3.12-6,.78-1.34,1.45-2.74,2.17-4.12s1.42-2.85,2.25-4.22c.71-1.22,1.23-2.54,2-3.76s1.24-2.53,2-3.74a52.52,52.52,0,0,1,2.77-5.05c.27-.4.78-.31,1.2-.34,3.49,0,7,0,10.49,0a1.19,1.19,0,0,1,1.1.66c.22.66-.26,1.26-.56,1.8q-16.68,31.17-33.31,62.35a13.26,13.26,0,0,1-2.16,3.43h-.84c-1.26-.79-1.69-2.33-2.41-3.56q-16.9-31.61-33.79-63.23Z"/><text class="cls-2" transform="translate(56.08 103.2)">4230100000512<tspan x="-28.95" y="21.6">CUEN</tspan><tspan class="cls-3" x="27.45" y="21.6">T</tspan><tspan class="cls-4" x="38.46" y="21.6">A</tspan><tspan x="52.14" y="21.6" xml:space="preserve"> CORRIENTE</tspan></text></g></g></svg>