<svg xmlns="http://www.w3.org/2000/svg" viewBox="0 0 260 131.08"><defs><style>.cls-1{fill:#c92431;}.cls-1,.cls-2,.cls-3{fill-rule:evenodd;}.cls-2{fill:#3390ce;}.cls-3{fill:#3290d1;}.cls-4{font-size:18px;font-family:Arimo-Bold, Arimo;font-weight:700;letter-spacing:0.08em;}.cls-5{letter-spacing:0em;}.cls-6{letter-spacing:0.04em;}</style></defs><title>b1Recurso 23</title><g id="Capa_2" data-name="Capa 2"><g id="Capa_1-2" data-name="Capa 1"><path class="cls-1" d="M28.82,1.14c1.86,0,3.36,2.41,3.36,5.38s-1.5,5.39-3.36,5.39S25.47,9.5,25.47,6.52,27,1.14,28.82,1.14Zm-17.9,9.78c1.31-1.32,3.68-1.07,5.29.54s1.85,4,.54,5.29-3.68,1.07-5.29-.54-1.86-4-.54-5.29Zm0,35.81c-1.32-1.31-1.07-3.68.54-5.29s4-1.85,5.29-.54,1.07,3.68-.54,5.29-4,1.86-5.29.54Zm35.81,0c-1.31,1.32-3.68,1.07-5.29-.54s-1.85-4-.54-5.29,3.68-1.07,5.29.54,1.86,4,.54,5.29ZM1.14,28.83c0-1.86,2.41-3.36,5.38-3.36s5.39,1.5,5.39,3.36-2.42,3.35-5.39,3.35-5.38-1.5-5.38-3.35ZM28.82,56.51c-1.85,0-3.35-2.41-3.35-5.38s1.5-5.39,3.35-5.39,3.36,2.42,3.36,5.39-1.5,5.38-3.36,5.38ZM56.51,28.83c0,1.85-2.41,3.35-5.38,3.35s-5.39-1.5-5.39-3.35,2.41-3.36,5.39-3.36,5.38,1.5,5.38,3.36ZM46.73,10.92c1.32,1.31,1.07,3.68-.54,5.29s-4,1.85-5.29.54-1.07-3.68.54-5.29S45.42,9.6,46.73,10.92Z"/><path class="cls-1" d="M28.82,16.94a1.74,1.74,0,0,1,1.59,1.86,1.74,1.74,0,0,1-1.59,1.86,1.74,1.74,0,0,1-1.58-1.86,1.74,1.74,0,0,1,1.58-1.86Zm-8.4,3.48a1.88,1.88,0,0,1,2.63,2.63,1.88,1.88,0,0,1-2.63-2.63Zm0,16.81a1.88,1.88,0,0,1,2.63-2.63,1.88,1.88,0,0,1-2.63,2.63Zm16.81,0A1.88,1.88,0,0,1,34.6,34.6a1.88,1.88,0,0,1,2.63,2.63Zm-20.29-8.4a1.74,1.74,0,0,1,1.86-1.59,1.74,1.74,0,0,1,1.86,1.59,1.74,1.74,0,0,1-1.86,1.58,1.74,1.74,0,0,1-1.86-1.58ZM28.82,40.71a1.88,1.88,0,0,1,0-3.72,1.88,1.88,0,0,1,0,3.72ZM40.71,28.83a1.88,1.88,0,0,1-3.72,0,1.88,1.88,0,0,1,3.72,0Zm-3.48-8.41a1.88,1.88,0,0,1-2.63,2.63,1.88,1.88,0,0,1,2.63-2.63Z"/><path class="cls-2" d="M21.51,11.17c1.17-.49,2.66.4,3.32,2s.24,3.27-.94,3.76-2.66-.41-3.31-2S20.34,11.65,21.51,11.17Z"/><path class="cls-2" d="M11.16,21.51c.49-1.17,2.17-1.59,3.76-.93s2.48,2.14,2,3.31-2.17,1.59-3.76.94S10.68,22.68,11.16,21.51Z"/><path class="cls-2" d="M11.16,36.14c-.48-1.17.41-2.66,2-3.32s3.27-.24,3.76.94-.41,2.66-2,3.31S11.65,37.31,11.16,36.14Z"/><path class="cls-2" d="M21.51,46.48c-1.17-.48-1.59-2.16-.93-3.75s2.14-2.48,3.31-2,1.59,2.17.94,3.76S22.68,47,21.51,46.48Z"/><path class="cls-2" d="M36.14,46.48c-1.17.49-2.66-.4-3.32-2s-.24-3.27.94-3.76,2.66.41,3.31,2S37.31,46,36.14,46.48Z"/><path class="cls-2" d="M46.48,36.14c-.48,1.17-2.16,1.59-3.75.93s-2.48-2.14-2-3.31,2.17-1.59,3.76-.94S47,35,46.48,36.14Z"/><path class="cls-2" d="M46.48,21.51c.49,1.17-.4,2.66-2,3.32s-3.27.24-3.76-.94.41-2.66,2-3.31S46,20.34,46.48,21.51Z"/><path class="cls-2" d="M36.14,11.17c1.17.48,1.59,2.16.93,3.75s-2.14,2.48-3.31,2-1.59-2.17-.94-3.76S35,10.68,36.14,11.17Z"/><path class="cls-3" d="M16.84.22c1.06-.44,2.41.37,3,1.81s.22,3-.84,3.4-2.41-.37-3-1.81S15.77.66,16.84.22Z"/><path class="cls-3" d="M.12,17.07c.44-1.06,2-1.44,3.41-.84s2.24,1.94,1.8,3-2,1.44-3.4.85S-.32,18.14.12,17.07Z"/><path class="cls-3" d="M.22,40.81c-.44-1.06.37-2.41,1.81-3s3-.21,3.4.85-.37,2.41-1.81,3S.66,41.88.22,40.81Z"/><path class="cls-3" d="M17.07,57.53c-1.06-.44-1.44-2-.84-3.41s1.94-2.25,3-1.81,1.45,2,.85,3.41S18.14,58,17.07,57.53Z"/><path class="cls-3" d="M40.81,57.43c-1.06.44-2.41-.37-3-1.81s-.22-3,.84-3.4,2.41.37,3,1.81S41.88,57,40.81,57.43Z"/><path class="cls-3" d="M57.53,40.58c-.44,1.06-2,1.44-3.41.84s-2.25-1.94-1.8-3,2-1.45,3.4-.85S58,39.51,57.53,40.58Z"/><path class="cls-3" d="M57.43,16.84c.44,1.06-.37,2.41-1.81,3s-3,.22-3.4-.84.37-2.41,1.81-3S57,15.77,57.43,16.84Z"/><path class="cls-3" d="M40.58.12c1.06.44,1.44,2,.84,3.41s-1.94,2.24-3,1.8-1.45-2-.85-3.4S39.51-.32,40.58.12Z"/><path class="cls-3" d="M73.25,21.69v5a12.4,12.4,0,0,0,1.78.13,2.76,2.76,0,0,0,3-2.7,2.68,2.68,0,0,0-2.6-2.54,5.39,5.39,0,0,0-2.23.06Zm0,8v5.69a11.93,11.93,0,0,0,3.81-.11,2.86,2.86,0,0,0,2-3.07,3.1,3.1,0,0,0-3.16-2.62,21,21,0,0,0-2.65.11ZM70.4,38.34a.7.7,0,0,1-.73-.67V19.9a.7.7,0,0,1,.73-.67,41.52,41.52,0,0,1,6.33,0c2.48.31,4.67,2.5,4.67,4.64a4.39,4.39,0,0,1-2.17,3.95s2.34,1.1,2.84,3,.06,5.44-2.65,6.74-9,.7-9,.7ZM84.49,25.65l.79,1.56c.19.37.41.49.73.3a5.6,5.6,0,0,1,2.68-.79,2.75,2.75,0,0,1,3,2.79,7,7,0,0,0-2.23-.38c-1.6,0-5.78.64-5.78,4.64s3.27,4.74,5.5,4.74a11.34,11.34,0,0,0,5.52-1.3v-8a5.12,5.12,0,0,0-1.5-3.78,7.48,7.48,0,0,0-8.31-.67c-.51.31-.48.65-.37.87Zm7.18,6.78v3a4.68,4.68,0,0,1-2.41.57,2.34,2.34,0,0,1-2.63-2.23c0-1.35,1.4-2.06,2.52-2.06a3.77,3.77,0,0,1,2.52.74ZM97.54,24h.77a1.27,1.27,0,0,1,1.26,1.27v.52A6.23,6.23,0,0,1,103.72,24c3.22,0,4.28,3,4.28,4.88v8.57a.69.69,0,0,1-.68.68h-1.93a.69.69,0,0,1-.69-.68V28.87a2,2,0,0,0-2.23-1.94c-1.27,0-2.3,1.39-2.9,2.43v8.08a.68.68,0,0,1-.68.68H97a.68.68,0,0,1-.68-.68V25.29A1.27,1.27,0,0,1,97.54,24ZM128,24c3.69,0,6.69,3.27,6.69,7.3s-3,7.3-6.69,7.3-6.68-3.27-6.68-7.3,3-7.3,6.68-7.3Zm0,2.72c-1.72,0-3.12,2.05-3.12,4.58s1.4,4.58,3.12,4.58,3.13-2,3.13-4.58-1.4-4.58-3.13-4.58ZM117.33,24a7.84,7.84,0,0,1,3,.57c.53.22.82.36.67.93l-.47,1.76c-.09.33-.3.43-.72.15a4.06,4.06,0,0,0-2.24-.69,4.41,4.41,0,0,0-4.22,4.58,4.41,4.41,0,0,0,4.22,4.58,4,4,0,0,0,2.16-.65c.53-.34.68-.31.8.1l.48,1.81a.57.57,0,0,1-.31.72,8,8,0,0,1-3.33.74,7.31,7.31,0,1,1,0-14.6Zm33.36-5.46a9.47,9.47,0,0,1,3.8.79c.68.29,1.06.48.87,1.27l-.49,1.93c-.11.46-.38.6-.93.21a5,5,0,0,0-2.87-1c-3,0-6.14,2.41-6.14,6.79s3.16,6.84,6.16,6.84a4.85,4.85,0,0,0,2.77-.88c.68-.47.87-.43,1,.13l.48,1.93a.81.81,0,0,1-.4,1,9.64,9.64,0,0,1-4.28,1,10,10,0,0,1,0-20.06Zm22.16,6.14h-2.56a.93.93,0,0,0-.93.93v.68a.94.94,0,0,0,.93.94h1v12c0,.58-.81.87-1.39.87s-1.06-.76-1.42-.3-1.09,1.39-1.26,1.61,0,.58.69.95a5.55,5.55,0,0,0,2.73.64,3.75,3.75,0,0,0,3.17-1.59,4.85,4.85,0,0,0,.63-3V25.34a.64.64,0,0,0-.64-.64Zm-.8-5.91h.79a1.79,1.79,0,0,1,1.79,1.79v.23a1.79,1.79,0,0,1-1.79,1.79h-.79a1.79,1.79,0,0,1-1.79-1.79v-.23a1.8,1.8,0,0,1,1.79-1.79ZM214.54,24c3.69,0,6.68,3.27,6.68,7.3s-3,7.3-6.68,7.3-6.69-3.27-6.69-7.3,3-7.3,6.69-7.3Zm0,2.72c-1.73,0-3.13,2.05-3.13,4.58s1.4,4.58,3.13,4.58,3.12-2,3.12-4.58-1.4-4.58-3.12-4.58ZM229.6,24a7.84,7.84,0,0,1,3,.57c.52.22.82.36.67.93l-.47,1.76c-.09.33-.3.43-.72.15a4.08,4.08,0,0,0-2.24-.69,4.41,4.41,0,0,0-4.22,4.58,4.41,4.41,0,0,0,4.22,4.58,4,4,0,0,0,2.16-.65c.53-.34.68-.31.8.1l.48,1.81a.57.57,0,0,1-.31.72,8,8,0,0,1-3.33.74,7.31,7.31,0,1,1,0-14.6Zm8,.68H235a.93.93,0,0,0-.93.93v.68a.94.94,0,0,0,.93.94h1V37.43a.63.63,0,0,0,.65.71h1.89c.44,0,.61-.31.61-.71V25.34a.64.64,0,0,0-.64-.64Zm-.8-5.91h.79a1.79,1.79,0,0,1,1.79,1.79v.23a1.79,1.79,0,0,1-1.79,1.79h-.79A1.79,1.79,0,0,1,235,20.81v-.23a1.8,1.8,0,0,1,1.79-1.79ZM157,25.65c-.11-.22-.14-.56.38-.87a7.48,7.48,0,0,1,8.31.67,5.15,5.15,0,0,1,1.49,3.78v8a11.3,11.3,0,0,1-5.52,1.3c-2.23,0-5.5-.73-5.5-4.74s4.18-4.64,5.79-4.64a7.15,7.15,0,0,1,2.23.38,2.75,2.75,0,0,0-3-2.79,5.59,5.59,0,0,0-2.67.79c-.33.19-.54.07-.73-.3l-.8-1.56Zm7.18,6.78a3.75,3.75,0,0,0-2.52-.74c-1.11,0-2.52.71-2.52,2.06s1.1,2.23,2.64,2.23a4.62,4.62,0,0,0,2.4-.57v-3Zm13.23-6.78.79,1.56c.19.37.41.49.73.3a5.59,5.59,0,0,1,2.67-.79,2.75,2.75,0,0,1,3,2.79,7.09,7.09,0,0,0-2.23-.38c-1.61,0-5.78.64-5.78,4.64s3.27,4.74,5.49,4.74a11.27,11.27,0,0,0,5.52-1.3v-8a5.15,5.15,0,0,0-1.49-3.78,7.48,7.48,0,0,0-8.31-.67c-.52.31-.49.65-.37.87Zm7.18,6.78v3a4.68,4.68,0,0,1-2.41.57c-1.54,0-2.64-.89-2.64-2.23s1.41-2.06,2.53-2.06a3.77,3.77,0,0,1,2.52.74Zm56.83-6.78.79,1.56c.19.37.41.49.73.3a5.59,5.59,0,0,1,2.67-.79,2.75,2.75,0,0,1,3,2.79,7.09,7.09,0,0,0-2.23-.38c-1.61,0-5.78.64-5.78,4.64s3.27,4.74,5.49,4.74a11.27,11.27,0,0,0,5.52-1.3v-8a5.15,5.15,0,0,0-1.49-3.78,7.48,7.48,0,0,0-8.31-.67c-.52.31-.49.65-.37.87Zm7.18,6.78v3a4.68,4.68,0,0,1-2.41.57c-1.54,0-2.64-.89-2.64-2.23s1.41-2.06,2.53-2.06a3.77,3.77,0,0,1,2.52.74Zm-45,.25c0-1.36-1.52-2.23-3.22-2.91s-4.21-1.93-5-3.54a5.12,5.12,0,0,1-.24-3.16A6.09,6.09,0,0,1,199,19.25a7.75,7.75,0,0,1,3.74-.28,9.47,9.47,0,0,1,2.7.79c.63.31.87.48.64,1s-.64,1.28-.75,1.49-.27.51-.84.21a6,6,0,0,0-2.53-.76,4.86,4.86,0,0,0-2.24.38c-1.69.89-1.6,2.41,0,3.39,1,.62,2.51,1,3.88,1.75,2.37,1.22,3.47,2.95,3.47,4.8a6.14,6.14,0,0,1-3.3,5.8,10,10,0,0,1-4.47.93,9.49,9.49,0,0,1-2.41-.4,13.93,13.93,0,0,1-2-.75c-.45-.22-.26-.44-.21-.66.13-.47.5-1.71.67-2.1s.47-.59,1.11-.2a5.79,5.79,0,0,0,3.23.87,4,4,0,0,0,3.17-1.14,2.72,2.72,0,0,0,.69-1.73Zm49.8-12.58a1.27,1.27,0,0,1,1.27-1.27h.62a1.27,1.27,0,0,1,1.27,1.27V33.73c0,1,.25,1.57,1.56,1.57h1a.93.93,0,0,1,.93.93v1.32a.93.93,0,0,1-.93.93h-2.35a3.15,3.15,0,0,1-3.34-3.29Z"/><path class="cls-3" d="M175.45,51.16a.83.83,0,1,0-1-.81.92.92,0,0,0,1,.81Zm2.36-1.2a1.74,1.74,0,0,1,.05.39,2.22,2.22,0,0,1-2.41,1.94,2.86,2.86,0,0,1-.73-.09.93.93,0,0,0-.07.44.78.78,0,0,0,.31.49,2.94,2.94,0,0,1,.67-.13c1.43-.13,2.59.64,2.59,1.71s-1.16,2-2.59,2.17-2.58-.64-2.58-1.71a1.83,1.83,0,0,1,.58-1.27,1.59,1.59,0,0,1-.48-1.14,2.7,2.7,0,0,1,.38-1.23,1.73,1.73,0,0,1-.5-1.18,2.22,2.22,0,0,1,2.42-1.94,2.85,2.85,0,0,1,1.11.22,1.58,1.58,0,0,1,.88-.24c.68,0,1.24.36,1.24.8s-.37.67-.87.77Zm-2.3,5.81c.76,0,1.44-.45,1.51-.91s-.49-.8-1.26-.75-1.44.46-1.51.92.49.79,1.26.74ZM182,48.52a3.16,3.16,0,0,0-1.17.21,2.55,2.55,0,0,0-1.55,1.55,3.75,3.75,0,0,0,0,2.56,2.61,2.61,0,0,0,.6.94,2.56,2.56,0,0,0,.91.59,3.27,3.27,0,0,0,1.15.2,3,3,0,0,0,.84-.11,2.82,2.82,0,0,0,.78-.33,2.46,2.46,0,0,0,.66-.59,2.58,2.58,0,0,0,.46-.87,4,4,0,0,0,.17-1.17,3.77,3.77,0,0,0-.2-1.2,2.68,2.68,0,0,0-.57-.95,2.52,2.52,0,0,0-.89-.61,3.14,3.14,0,0,0-1.18-.22Zm1.16,3a2.87,2.87,0,0,1-.08.73,2,2,0,0,1-.23.6,1.16,1.16,0,0,1-.38.41.9.9,0,0,1-.51.15.92.92,0,0,1-.53-.15,1.07,1.07,0,0,1-.39-.4,2.27,2.27,0,0,1-.23-.6,2.87,2.87,0,0,1-.08-.73,3.27,3.27,0,0,1,0-.54,2.72,2.72,0,0,1,.13-.51,1.76,1.76,0,0,1,.23-.43,1,1,0,0,1,.36-.3,1,1,0,0,1,.48-.11,1,1,0,0,1,.54.16,1.23,1.23,0,0,1,.37.44,1.94,1.94,0,0,1,.21.6,3.08,3.08,0,0,1,.07.68Zm3.44,3a1,1,0,0,0,.52-.13.88.88,0,0,0,.35-.34,1.08,1.08,0,0,0,.12-.52,1,1,0,0,0-.13-.52.91.91,0,0,0-.35-.35,1.07,1.07,0,0,0-.51-.12,1,1,0,0,0-.51.13.84.84,0,0,0-.35.35,1.08,1.08,0,0,0-.14.51,1.2,1.2,0,0,0,.13.51,1,1,0,0,0,.34.35,1,1,0,0,0,.53.13Zm-18.38-3.64a3.78,3.78,0,0,0-.14-1.08,2.11,2.11,0,0,0-.38-.75,1.49,1.49,0,0,0-.57-.43,1.89,1.89,0,0,0-.72-.14,2,2,0,0,0-.63.1,1.73,1.73,0,0,0-.58.31,2.57,2.57,0,0,0-.52.56h0a1.25,1.25,0,0,0-.33-.51,1.39,1.39,0,0,0-.51-.34,1.88,1.88,0,0,0-.65-.12,2.21,2.21,0,0,0-.59.09,1.62,1.62,0,0,0-.46.21,1.66,1.66,0,0,0-.35.28,2.44,2.44,0,0,0-.26.32h0l-.07-.78h-1.32q0,.38,0,.81c0,.28,0,.59,0,.93v4.07h1.52V51a1.29,1.29,0,0,1,.09-.51,1,1,0,0,1,.22-.37.89.89,0,0,1,.3-.22.79.79,0,0,1,.32-.08A.74.74,0,0,1,163,50a.91.91,0,0,1,.26.45,1.75,1.75,0,0,1,.08.63v3.43h1.53V50.93a1.35,1.35,0,0,1,.08-.52.9.9,0,0,1,.21-.36.89.89,0,0,1,.29-.2,1,1,0,0,1,.33-.07.72.72,0,0,1,.49.18,1,1,0,0,1,.28.48,3.13,3.13,0,0,1,.08.73v3.29h1.52V50.93Zm3.13-3.87a.82.82,0,0,0-.11-.42.75.75,0,0,0-.32-.29,1,1,0,0,0-.92,0,.72.72,0,0,0-.31.29.74.74,0,0,0-.12.42.89.89,0,0,0,.11.43.86.86,0,0,0,.31.29,1,1,0,0,0,.47.11.94.94,0,0,0,.45-.11.73.73,0,0,0,.32-.28.78.78,0,0,0,.12-.44Zm-.06,1.59h-1.65v5.81h1.65V48.65ZM77,46.44H75.06l-.92,3c-.13.48-.26,1-.38,1.44s-.23.94-.32,1.39h0c-.09-.46-.19-.93-.31-1.4s-.24-.94-.37-1.43l-.87-3H69.93l-.54,8h1.42L71,51.37c0-.33,0-.68.06-1s0-.73,0-1.09,0-.72,0-1.06h0l.21,1,.24,1c.08.34.17.66.26,1l.89,3.19H73.9l1-3.24c.09-.3.19-.62.28-.94l.27-1c.09-.33.17-.66.25-1h0q0,.76,0,1.56c0,.53,0,1.06.06,1.6L76,54.46h1.49l-.46-8ZM83.42,51a3.84,3.84,0,0,0-.11-.91,2.07,2.07,0,0,0-.4-.78,1.85,1.85,0,0,0-.75-.53,3.41,3.41,0,0,0-1.2-.2,6.28,6.28,0,0,0-.9.08,6,6,0,0,0-.73.18,5.58,5.58,0,0,0-.52.23l.31,1a3.19,3.19,0,0,1,.7-.28,3.26,3.26,0,0,1,.83-.11,1.57,1.57,0,0,1,.69.13.74.74,0,0,1,.34.36,1.42,1.42,0,0,1,.09.52,6.51,6.51,0,0,0-1.37.13,3.56,3.56,0,0,0-1.07.4,2.13,2.13,0,0,0-.71.69,1.89,1.89,0,0,0-.25,1,1.86,1.86,0,0,0,.13.67,1.69,1.69,0,0,0,1,.93,5.61,5.61,0,0,0,2.64,0,6.2,6.2,0,0,0,1.34-.38l0-1V51Zm-1.61,1.51c0,.19,0,.28,0,.56a1.79,1.79,0,0,1-1,.38.72.72,0,0,1-.83-.73.87.87,0,0,1,.16-.52,1,1,0,0,1,.42-.31,2,2,0,0,1,.58-.17,4.78,4.78,0,0,1,.66,0v.83Zm-1.48-4.54h1.11l1.47-1.74H81.36l-1,1.74Zm8.28.93a3,3,0,0,0-.66-.23,4,4,0,0,0-.88-.1,3.09,3.09,0,0,0-.94.14,2.26,2.26,0,0,0-.72.39,1.57,1.57,0,0,0-.45.58,1.78,1.78,0,0,0-.17.73A1.27,1.27,0,0,0,85,51a1.87,1.87,0,0,0,.5.58,3.63,3.63,0,0,0,.93.49,3.86,3.86,0,0,1,.53.25.78.78,0,0,1,.28.25.53.53,0,0,1,.08.31.52.52,0,0,1-.21.43,1.13,1.13,0,0,1-.65.15,2.46,2.46,0,0,1-.53-.06,2.73,2.73,0,0,1-.51-.14,3.31,3.31,0,0,1-.41-.18l-.31,1.11a2.49,2.49,0,0,0,.49.21,4.48,4.48,0,0,0,.6.13,4.65,4.65,0,0,0,.66.05,3.43,3.43,0,0,0,1.32-.23,1.79,1.79,0,0,0,.84-.64,1.73,1.73,0,0,0,.29-1,1.54,1.54,0,0,0-.38-1A2.87,2.87,0,0,0,87.31,51a4.12,4.12,0,0,1-.57-.25,1,1,0,0,1-.3-.24.39.39,0,0,1-.08-.28.51.51,0,0,1,.08-.28.67.67,0,0,1,.26-.2,1.11,1.11,0,0,1,.43-.07,2.14,2.14,0,0,1,.45,0l.4.11a3.37,3.37,0,0,1,.32.14l.31-1.08Zm6,.5V46.07H92.93V51.7c0,.63,0,1.26,0,1.89a4.4,4.4,0,0,0,3.15,1,2.74,2.74,0,0,0,.76-.12,2.48,2.48,0,0,0,.7-.37,2.63,2.63,0,0,0,.56-.63,2.88,2.88,0,0,0,.39-.87,4.45,4.45,0,0,0,.14-1.14,4.32,4.32,0,0,0-.16-1.18,2.91,2.91,0,0,0-.47-.93,2.31,2.31,0,0,0-.72-.6,2.2,2.2,0,0,0-.94-.21,2.37,2.37,0,0,0-1,.22,1.88,1.88,0,0,0-.7.61Zm0,1.65a1.4,1.4,0,0,1,.09-.51,1.3,1.3,0,0,1,.25-.39,1.27,1.27,0,0,1,.36-.26,1,1,0,0,1,.42-.09,1.21,1.21,0,0,1,.55.14,1.06,1.06,0,0,1,.39.37,1.67,1.67,0,0,1,.24.56,3.13,3.13,0,0,1,.08.7,2.82,2.82,0,0,1-.15,1,1.39,1.39,0,0,1-.43.63,1.13,1.13,0,0,1-.68.22,1,1,0,0,1-.59-.17,1.08,1.08,0,0,1-.39-.43,1.33,1.33,0,0,1-.14-.6V51ZM111,50.89a3.31,3.31,0,0,0-.16-1,1.92,1.92,0,0,0-.42-.73,1.79,1.79,0,0,0-.65-.44,2.26,2.26,0,0,0-.79-.14,2.45,2.45,0,0,0-.63.09,2,2,0,0,0-.51.21,1.65,1.65,0,0,0-.39.29,1.91,1.91,0,0,0-.27.32h0l-.08-.79H105.6q0,.38,0,.81c0,.28,0,.59,0,.93v4.07h1.66V51a1.34,1.34,0,0,1,.1-.56.92.92,0,0,1,.26-.37.88.88,0,0,1,.34-.21,1.18,1.18,0,0,1,.36-.06.79.79,0,0,1,.55.17,1,1,0,0,1,.31.45,2.17,2.17,0,0,1,.09.65v3.39H111V50.89Zm5.47,2.26a1.83,1.83,0,0,1-.45.14,3.06,3.06,0,0,1-.56.05,1.7,1.7,0,0,1-.85-.21,1.55,1.55,0,0,1-.58-.61,2.07,2.07,0,0,1-.22-1,2.36,2.36,0,0,1,.11-.72,1.87,1.87,0,0,1,.32-.57,1.52,1.52,0,0,1,.52-.38,1.67,1.67,0,0,1,.69-.14,2.4,2.4,0,0,1,.58.06,2.35,2.35,0,0,1,.4.13l.26-1.18-.33-.1c-.14,0-.28-.06-.45-.08a4.06,4.06,0,0,0-.51,0,4.15,4.15,0,0,0-1.38.24,2.83,2.83,0,0,0-1,.65,2.74,2.74,0,0,0-.64,1,3.27,3.27,0,0,0-.22,1.22,3.47,3.47,0,0,0,.21,1.24,2.55,2.55,0,0,0,.61.93,2.71,2.71,0,0,0,.94.58,3.75,3.75,0,0,0,1.24.2,4,4,0,0,0,.62,0,3.28,3.28,0,0,0,.52-.09l.37-.12-.18-1.16Zm3.83-4.63a3.16,3.16,0,0,0-1.17.21,2.55,2.55,0,0,0-1.55,1.55,3.75,3.75,0,0,0,0,2.56,2.61,2.61,0,0,0,.6.94,2.56,2.56,0,0,0,.91.59,3.27,3.27,0,0,0,1.15.2,3,3,0,0,0,.84-.11,2.82,2.82,0,0,0,.78-.33,2.46,2.46,0,0,0,.66-.59,2.58,2.58,0,0,0,.46-.87,4,4,0,0,0,.17-1.17,3.77,3.77,0,0,0-.2-1.2,2.68,2.68,0,0,0-.57-.95,2.52,2.52,0,0,0-.89-.61,3.14,3.14,0,0,0-1.18-.22Zm1.16,3a2.87,2.87,0,0,1-.08.73,2,2,0,0,1-.23.6,1.16,1.16,0,0,1-.38.41.9.9,0,0,1-.51.15.92.92,0,0,1-.53-.15,1.07,1.07,0,0,1-.39-.4,2.27,2.27,0,0,1-.23-.6,2.87,2.87,0,0,1-.08-.73,3.27,3.27,0,0,1,0-.54,2.72,2.72,0,0,1,.13-.51,1.76,1.76,0,0,1,.23-.43,1,1,0,0,1,.36-.3,1,1,0,0,1,.48-.11,1,1,0,0,1,.54.16,1.23,1.23,0,0,1,.37.44,1.94,1.94,0,0,1,.21.6,3.08,3.08,0,0,1,.07.68Zm3.75,3a1,1,0,0,0,.53-.13.86.86,0,0,0,.34-.34,1.11,1.11,0,0,0,0-1,1,1,0,0,0-.35-.35,1.08,1.08,0,0,0-.52-.12,1,1,0,0,0-.51.13.91.91,0,0,0-.35.35,1,1,0,0,0-.13.51,1.07,1.07,0,0,0,.12.51,1,1,0,0,0,.87.48Zm12.68-8.13H136l-.9,3c-.14.48-.26,1-.38,1.44s-.23.94-.32,1.39h0c-.09-.46-.19-.93-.3-1.4s-.24-.94-.37-1.43l-.86-3h-1.91l-.54,8h1.41l.15-3.09c0-.33,0-.68,0-1s0-.73.05-1.09,0-.72,0-1.06h0c.06.33.13.66.2,1l.24,1c.08.34.17.66.26,1l.88,3.19h1.17l1-3.24c.09-.3.18-.62.27-.94l.27-1c.09-.33.17-.66.25-1h0c0,.51,0,1,0,1.56l.06,1.6.15,3.12h1.47l-.46-8Zm11.34,2.41a3,3,0,0,0-.66-.23,4,4,0,0,0-.88-.1,3.09,3.09,0,0,0-.94.14,2.26,2.26,0,0,0-.72.39,1.57,1.57,0,0,0-.45.58,1.78,1.78,0,0,0-.17.73,1.27,1.27,0,0,0,.16.62,1.87,1.87,0,0,0,.5.58,3.81,3.81,0,0,0,.93.49,3.86,3.86,0,0,1,.53.25.78.78,0,0,1,.28.25.53.53,0,0,1,.08.31.52.52,0,0,1-.21.43,1.13,1.13,0,0,1-.65.15,2.46,2.46,0,0,1-.53-.06,2.73,2.73,0,0,1-.51-.14,3.31,3.31,0,0,1-.41-.18l-.31,1.11a2.49,2.49,0,0,0,.49.21,4.48,4.48,0,0,0,.6.13,4.65,4.65,0,0,0,.66.05,3.52,3.52,0,0,0,1.33-.23,1.81,1.81,0,0,0,.83-.64,1.66,1.66,0,0,0,.29-1,1.54,1.54,0,0,0-.38-1,2.87,2.87,0,0,0-1.16-.74,4.12,4.12,0,0,1-.57-.25,1,1,0,0,1-.3-.24.53.53,0,0,1,0-.56.64.64,0,0,1,.27-.2,1,1,0,0,1,.42-.07,2.14,2.14,0,0,1,.45,0,3.26,3.26,0,0,1,.4.11,2.52,2.52,0,0,1,.32.14l.31-1.08ZM104.54,51a3,3,0,0,0-.11-.91,2.2,2.2,0,0,0-.39-.78,2,2,0,0,0-.75-.53,3.41,3.41,0,0,0-1.2-.2,6,6,0,0,0-.9.08,5.19,5.19,0,0,0-.73.18c-.21.08-.39.16-.53.23l.31,1a3.28,3.28,0,0,1,.71-.28,3.18,3.18,0,0,1,.82-.11,1.65,1.65,0,0,1,.7.13.72.72,0,0,1,.33.36,1.42,1.42,0,0,1,.09.52,6.34,6.34,0,0,0-1.36.13,3.62,3.62,0,0,0-1.08.4,2,2,0,0,0-.7.69,1.8,1.8,0,0,0-.25,1,1.67,1.67,0,0,0,.13.67,1.45,1.45,0,0,0,.37.55,1.67,1.67,0,0,0,.58.38,5.61,5.61,0,0,0,2.64,0,6,6,0,0,0,1.34-.38l0-1V51Zm-1.6,1.51c0,.19,0,.28,0,.56a1.73,1.73,0,0,1-1,.38.72.72,0,0,1-.83-.73.8.8,0,0,1,.15-.52,1.1,1.1,0,0,1,.42-.31,2.17,2.17,0,0,1,.58-.17,4.92,4.92,0,0,1,.67,0v.83ZM144.07,51A3.39,3.39,0,0,0,144,50a2.2,2.2,0,0,0-.39-.78,2,2,0,0,0-.76-.53,3.31,3.31,0,0,0-1.19-.2,6,6,0,0,0-.9.08,5.19,5.19,0,0,0-.73.18c-.21.08-.39.16-.53.23l.31,1a3.41,3.41,0,0,1,.7-.28,3.26,3.26,0,0,1,.83-.11,1.65,1.65,0,0,1,.7.13.72.72,0,0,1,.33.36,1.42,1.42,0,0,1,.09.52,6.34,6.34,0,0,0-1.36.13,3.62,3.62,0,0,0-1.08.4,2,2,0,0,0-.7.69,1.8,1.8,0,0,0-.25,1,1.67,1.67,0,0,0,.13.67,1.45,1.45,0,0,0,.37.55,1.67,1.67,0,0,0,.58.38,5.61,5.61,0,0,0,2.64,0,6.2,6.2,0,0,0,1.34-.38l0-1V51Zm-1.61,1.51c0,.19,0,.28,0,.56a1.76,1.76,0,0,1-1,.38.73.73,0,0,1-.84-.73.87.87,0,0,1,.16-.52,1,1,0,0,1,.42-.31,2.07,2.07,0,0,1,.58-.17,4.87,4.87,0,0,1,.66,0v.83ZM141,47.92h1.12l1.46-1.74H142l-1,1.74Zm17.63,3a3.84,3.84,0,0,0-.11-.91,2.07,2.07,0,0,0-.4-.78,1.85,1.85,0,0,0-.75-.53,3.41,3.41,0,0,0-1.2-.2,6.28,6.28,0,0,0-.9.08,5.57,5.57,0,0,0-.73.18c-.21.08-.39.16-.53.23l.32,1a3,3,0,0,1,.7-.28,3.2,3.2,0,0,1,.83-.11,1.57,1.57,0,0,1,.69.13.79.79,0,0,1,.34.36,1.24,1.24,0,0,1,.08.52,6.41,6.41,0,0,0-1.36.13,3.56,3.56,0,0,0-1.07.4,2,2,0,0,0-.71.69,1.89,1.89,0,0,0-.25,1,1.67,1.67,0,0,0,.13.67,1.69,1.69,0,0,0,1,.93,5.57,5.57,0,0,0,2.63,0,6.12,6.12,0,0,0,1.35-.38l0-1V51ZM157,52.46c0,.19,0,.28,0,.56a1.73,1.73,0,0,1-1,.38.72.72,0,0,1-.83-.73.81.81,0,0,1,.16-.52,1,1,0,0,1,.41-.31,2.13,2.13,0,0,1,.59-.17,4.68,4.68,0,0,1,.66,0Z"/><text class="cls-4" transform="translate(67.67 81.11)">21500050216<tspan x="-40.32" y="21.6">CUEN</tspan><tspan class="cls-5" x="16.09" y="21.6">T</tspan><tspan class="cls-6" x="27.1" y="21.6">A</tspan><tspan x="40.78" y="21.6" xml:space="preserve"> CORRIENTE</tspan></text></g></g></svg>