<svg xmlns="http://www.w3.org/2000/svg" viewBox="0 0 266.55 198.48"><defs><style>.cls-1{fill:#01497f;}.cls-1,.cls-2,.cls-3,.cls-4,.cls-5,.cls-6,.cls-7,.cls-8,.cls-9{fill-rule:evenodd;}.cls-2{fill:#1d5c8a;}.cls-3{fill:#7293aa;}.cls-4{fill:#8ea5b5;}.cls-5{fill:#396d95;}.cls-6{fill:#aab7c0;}.cls-7{fill:#5681a0;}.cls-9{fill:#4b649d;}.cls-10{font-size:19px;font-family:Arimo-Bold, Arimo;font-weight:700;letter-spacing:0.07em;}.cls-11{letter-spacing:0em;}.cls-12{letter-spacing:0.04em;}.cls-13{letter-spacing:0.08em;}</style></defs><title>banco coop 1Recurso 16</title><g id="Capa_2" data-name="Capa 2"><g id="Capa_1-2" data-name="Capa 1"><path class="cls-1" d="M0,47.72c.41.42,46.08,34.48,47.82,35.78,2.68,2,5.3,4,8,6l8,5.91c-.56-.39-2.88-3-3.79-4-.76-.75-2.92-3.36-3.68-4.22A91.59,91.59,0,0,1,47.9,75.38C36.91,56.34,37,39,48,20c3.38-5.83,6.49-9.5,10.46-14.24.19-.22.34-.34.52-.56L63.82,0,8,41.69C7.67,41.94.29,47.39,0,47.72Z"/><path class="cls-2" d="M63.87,95c-.48-.78-1.17-1.58-1.74-2.36-1.75-2.38-3.52-4.84-5.15-7.31a101.56,101.56,0,0,1-7.5-13.25A66.57,66.57,0,0,1,46,63c-3.1-10.57-3.11-20.18.8-30.55a61.38,61.38,0,0,1,9.68-16.32l1.63-1.94c.92-1.05,1.84-2.14,2.83-3.12,1.26-1.24,1.93-2.1,3.55-3.58,1.09-1,2.57-2.49,3.72-3.41L72.07.79,57.76,9.87c-1,.65-1.94,1.21-2.88,1.84-.47.31-1,.62-1.42.91a3.13,3.13,0,0,0-1.13,1.19c-5.8,7.93-11.13,18.44-12.17,30.07-1.09,12.19,3.33,24.14,9,33A92.27,92.27,0,0,0,56,86.39c1.47,1.84,2.94,3.34,4.35,5l2.31,2.41A9,9,0,0,0,63.87,95Z"/><path class="cls-3" d="M63.92,93.7c-.33-1-1.89-4.48-2.5-6.07A92.24,92.24,0,0,1,56,67.3c-1.4-10.32-.34-21,3.68-29.53A52.54,52.54,0,0,1,70.26,22.6c.37-.37.68-.67,1.06-1L74.17,19a82.89,82.89,0,0,1,10.66-7.61c1.77-1.07,3.59-2.11,5.49-3.09s3.89-1.87,5.81-2.83c-.57.08-18.65,6.44-20,6.93-1.67.6-1.8.46-3,1.47l-3.61,3.2c-.38.37-.78.69-1.18,1.07-.8.77-1.42,1.49-2.19,2.3l-4.15,4.9a50.71,50.71,0,0,0-6.58,11.53C49.5,51.31,51.81,67.39,57.93,81.6A109.8,109.8,0,0,0,63.92,93.7Z"/><path class="cls-4" d="M63.3,91.43,61.54,85a86.85,86.85,0,0,1-2.87-22C58.8,51,62.21,40.42,68.77,31.79c.61-.81,1.16-1.53,1.82-2.27a26,26,0,0,1,2-2.19l2-2.06c.46-.54,1.62-1.45,2.2-2l2.26-1.84C85,16.71,93.15,12.51,100.48,9.7c.86-.33,2.15-.9,3-1.13a28.92,28.92,0,0,0-3.36.84L81.19,14.34c-1.26.32-2.94,1.76-4,2.55l-4.66,3.93a15,15,0,0,0-1.12,1.05c-.77.89-2.06,1.92-3.19,3.31A53,53,0,0,0,64.43,30a47.62,47.62,0,0,0-7.78,18.14c-2.72,13.66.44,27.58,5.4,40.25C62.45,89.42,62.93,90.47,63.3,91.43Z"/><path class="cls-5" d="M44.05,48.57c0,9.37,2.87,17.53,6.35,24.76A105.37,105.37,0,0,0,56,83.24c1,1.66,2.72,4.16,3.88,5.78l2.44,3.33A24,24,0,0,0,61,90.26c-.44-.71-.85-1.4-1.27-2.13A99.4,99.4,0,0,1,53,74.43C45.82,55.9,46.52,38.57,58.1,22.21a74.65,74.65,0,0,1,5.46-6.7l6.23-6C72.05,7.45,74.15,6,76.54,4.11c.46-.36,1-.68,1.4-1.06-.41.15-2.57,1.46-3.14,1.8-1.09.62-2.07,1.18-3.13,1.82-2.07,1.24-4.14,2.43-6.26,3.65S61.24,12.77,59.14,14a7.67,7.67,0,0,0-2.49,2.46C50,24.74,44,35.28,44.05,48.57Z"/><path class="cls-6" d="M65,95.1c-.11-1-.56-2.47-.79-3.5A100.82,100.82,0,0,1,61.6,64.47c.59-10.36,3.34-19,7.94-26.33a52.09,52.09,0,0,1,4.55-6.06l3.73-3.77c.22-.18.35-.35.56-.52.4-.34.76-.67,1.17-1A66.08,66.08,0,0,1,98.66,15.93c2.12-.8,4.19-1.49,6.4-2.19,1.09-.35,2.19-.64,3.31-1,.91-.25,2.71-.59,3.44-.9-1.24,0-17.2,2.29-19.54,2.61s-1.77,0-3.46.95A70.29,70.29,0,0,0,77,23.53l-3.5,3.23c-.37.39-.69.73-1,1.13-.19.22-.32.33-.53.55l-1.57,1.84c-.35.41-.67.81-1,1.25a50.3,50.3,0,0,0-3.58,5.31C55.5,54.55,58.35,75.5,64.58,94.3l.25.61C64.94,95.1,64.85,95,65,95.1Z"/><path class="cls-7" d="M62.87,92.54l-1.46-2.81c-1.3-2.46-3-6.19-4-8.72a87.82,87.82,0,0,1-4.15-12.88c-2.3-9.84-2.15-20.55,1.23-29.69A54.3,54.3,0,0,1,68.05,18c.35-.33.68-.72,1-1l3.41-3A97.69,97.69,0,0,1,86.36,4.33a14.11,14.11,0,0,0,1.33-.81L75.44,9c-2,.95-4.1,1.85-6.15,2.76-2.67,1.19-2.44.8-4.1,2.55-.6.63-2.16,2.19-2.66,2.83L60,20.17a54.15,54.15,0,0,0-9.29,17.42c-5.26,17.67.22,34.25,8.74,49.44C59.84,87.7,62.38,92,62.87,92.54Z"/><path class="cls-8" d="M200.8,53.46H200c0-1.52.57-1.92,1.36-2a6,6,0,0,0,1,0,7.06,7.06,0,0,0,1.3,0c.75.1,1.29.53,1.3,2Zm6.48,5.72v-1.8c-1.1-.12-4.2,0-5.33,0a2.2,2.2,0,0,1-1.46-.47A1.52,1.52,0,0,1,200,55.5h7.62a5.83,5.83,0,0,0,.1-1.2A5.3,5.3,0,0,0,205.5,50c-.83-.55-.61-.53-1.73-.53h-.17a3.5,3.5,0,0,0-.65,0,12.5,12.5,0,0,0-1.66,0,3.62,3.62,0,0,0-1.89.52,5.21,5.21,0,0,0-2.46,4.33,5,5,0,0,0,2.36,4.43,5.37,5.37,0,0,0,2.92.46C203.28,59.19,206.25,59.26,207.28,59.18Zm-124.19,0c1.84,0,8.89.24,10.08-.3a3.29,3.29,0,0,0,.88-5.77c-.11-.08-.26-.16-.39-.24l-.2-.11-.07,0-.07-.05s0,0-.06-.06l-.07-.05c2.66-1,2.56-5-.09-6.22-1.44-.67-7.94-.4-10-.37ZM186.6,62.78h2.66l0-3.53c2.3-.17,4.13.41,5.66-1.06a5.62,5.62,0,0,0,1.5-5.13c-.74-4.65-5.83-3.63-9.84-3.64Zm-8.23-13.29c-3.06.49-5.1,2.45-4.48,6.06.55,3.12,3.24,4.25,6.69,3.84A4.87,4.87,0,0,0,185,53.33C184.57,50.43,181.73,49,178.37,49.49Zm-12.5,0c-3,.51-5.07,2.52-4.41,6.11.56,3,3.3,4.25,6.73,3.77,3-.42,5-2.62,4.41-6.12C172.12,50.42,169.21,49,165.87,49.5Zm87.2,0c-3.09.37-5.22,2.39-4.68,5.95.48,3.13,3.11,4.37,6.54,4,3.12-.34,5.11-2.43,4.67-5.93C259.24,50.6,256.45,49.06,253.07,49.46ZM134,49.45c-3.1.34-5.23,2.35-4.77,5.82.42,3.16,2.94,4.5,6.48,4.15,3.13-.31,5.13-2.34,4.76-5.85C140.15,50.59,137.34,49.09,134,49.45ZM97.09,51.57c3.41.31,6.93-.94,6.52,1.84-1.3,0-4.57-.2-5.54.2a3.06,3.06,0,0,0-1.45,3.86c.61,1.57,2,1.75,4,1.75h5.74c0-1.6,0-3.21,0-4.82,0-3.58-.64-5-4.58-5a43.08,43.08,0,0,0-4.71.05Zm118.35,0c3.76.25,6.77-.81,6.54,1.82-1.37.19-4.37-.21-5.44.18A3,3,0,0,0,215,57.45c.63,1.59,2,1.77,4,1.77h5.76c0-1.57,0-3.14,0-4.71,0-3.42-.39-5.1-4.49-5.1-1.55,0-3.23-.06-4.77,0Zm-55.27,7.66v-2.4c-1.17,0-5.06.14-5.91-.06-2.81-.7-2.57-7.56-.14-8.14a53.64,53.64,0,0,1,6-.07l0-2.56c-2.41,0-6.35-.31-8.2.66-3.94,2.06-3.85,9.94-.2,12C153.36,59.52,158,59.22,160.17,59.22Zm-51.85,0h2.54l0-7.61a21.26,21.26,0,0,1,2.78,0c.94.18,1.07.75,1.07,1.79,0,1.92,0,3.85,0,5.77h2.63c0-1.58,0-3.14,0-4.71,0-3.73-.14-5.09-4.33-5.09-1.59,0-3.18,0-4.77,0C108.19,50.4,108.17,58.71,108.32,59.22Zm132.59,0h3.14l4.21-9.79h-3.11l-2.63,6.66c-.44-.45-2.18-5.64-2.64-6.67h-3.09c.09.49,1.65,4.14,2,4.91s.66,1.63,1,2.48C240,57.41,240.44,58.91,240.91,59.22Zm-113,0V57.08a34.49,34.49,0,0,1-4.35-.06,2.62,2.62,0,0,1-1.85-2.62,2.74,2.74,0,0,1,1.86-2.61,29.25,29.25,0,0,1,4.35-.1V49.41c-1.91,0-4.93-.26-6.45.48-3.39,1.64-3.48,7.25,0,8.84C123.06,59.48,126,59.22,127.94,59.22Zm99.31-9.82-1.61,0a7.09,7.09,0,0,0,0,2.06h1.58c0,6.49-.77,8,5,7.72l0-1.91c-1.5-.1-2.4,0-2.42-1.73a34.09,34.09,0,0,1,.06-4.08h2.51l0-2.07h-2.53l0-3.38-2.61,0Zm-16.37,1.12,0-1.07-2.59,0c-.09,1.16-.14,9.1,0,9.81h2.52l0-7.66h2.92V49.32a3.27,3.27,0,0,0-1.83.2,2,2,0,0,0-.9.81A1.7,1.7,0,0,1,210.88,50.52Zm42.24,1.09c-3.22,1-2.12,6.85,1.77,5.76C257.87,56.54,257.12,50.38,253.12,51.61ZM134,51.59c-3.15.93-2.28,6.73,1.64,5.81C138.75,56.66,138,50.41,134,51.59Zm44.58,0c-3.19,1-2.13,6.84,1.77,5.75C183.35,56.54,182.6,50.39,178.59,51.62Zm-12.38,0c-3.09.91-2.35,6.62,1.49,5.85C171,56.76,170.18,50.41,166.21,51.57Zm67.64,7.65h2.53l0-9.76-2.61-.05C233.71,50.38,233.7,58.73,233.85,59.22Zm-44.56-2.11c2.58.24,4.54-.16,4.55-2.82s-2.35-3-4.53-2.81ZM86,56.88a27.21,27.21,0,0,0,3.65.07c1.23,0,2.25-.15,2.23-1.49s-1.08-1.58-2.12-1.58a32.55,32.55,0,0,0-3.74.06Zm.08-5.28a35.06,35.06,0,0,0,3.57,0c1.27.05,2.13-.25,2.06-1.6s-.89-1.56-2.06-1.55a34.71,34.71,0,0,0-3.54,0Zm136,5.53V55.32c-.79-.08-1.81,0-2.61,0s-1.75,0-1.79.91.83,1,1.69,1A18.78,18.78,0,0,0,222,57.13Zm-118.35,0V55.32c-.85,0-1.73,0-2.58,0s-1.78,0-1.83.91.92,1,1.72,1S102.76,57.2,103.65,57.17Zm130.12-9.24,0,.41h2.59l0-2.29L236,46h-2.26Z"/><path class="cls-8" d="M237.86,71.1c1.95.16,4.56,0,6.55,0,1,0,2.25-.16,3,.37a2.69,2.69,0,0,1,1,2.56c-1.41,0-7.18-.09-8.1.07-5,.87-4.57,9.24,1,9.24h11.45c.11-1.35,0-7.51,0-9.33,0-7-5.2-6.38-9.57-6.38a51.41,51.41,0,0,0-5.28,0ZM160.18,73c0,4.48,1.8,8.09,4.62,9.54,1.85.94,3.85.83,6.14.83H178V79.48c-1.49,0-8.34.09-9.19,0-4.72-.69-4.5-12.23-.4-13.13,1.51-.34,7.41.14,9.54-.11l0-4a65.67,65.67,0,0,0-7.05-.05c-2.44,0-4.2.08-6.11,1.09C161.9,64.79,160.19,68.49,160.18,73ZM197,83.32h4.2l0-12.15c7.21-.08,6.17-.59,6.17,8.47a34.38,34.38,0,0,0,0,3.67h4.18c.12-1.71,0-8.46,0-10.67a4.69,4.69,0,0,0-4.75-5l-9.87,0V83.32Zm-12.76-9.17h-1.32c0-2.47.92-3.11,2.21-3.23a10.46,10.46,0,0,0,1.68,0,13.51,13.51,0,0,0,2.11,0c1.21.17,2.08.86,2.1,3.22h-6.78Zm10.5,9.27,0-2.91c-1.78-.2-6.8,0-8.64-.07a3.49,3.49,0,0,1-2.35-.77,2.47,2.47,0,0,1-.81-2.22h12.35a10.08,10.08,0,0,0,.17-1.94,8.64,8.64,0,0,0-3.61-7c-1.34-.9-1-.86-2.81-.86h-.27a7.48,7.48,0,0,0-1.07,0,22.19,22.19,0,0,0-2.68,0,5.8,5.8,0,0,0-3.06.84,8.45,8.45,0,0,0-4,7,8,8,0,0,0,3.83,7.17c1.44.86,2.88.75,4.73.75S193.07,83.54,194.74,83.42ZM215.8,67.64h-2.64V70.9l2.61,0c.19,2.54-.36,7.83.36,9.84a4.13,4.13,0,0,0,2.67,2.4,28.31,28.31,0,0,0,5,.15l0-3.09c-2.46,0-3.88-.08-3.87-2.71,0-2.06-.14-4.6,0-6.59h4l0-3.3H220l0-5.46-4.16,0Zm39.94,15.68H260l0-21.16-4.23,0ZM230.49,69.49l0-1.79a29,29,0,0,0-4.18,0V83.31l4.17,0,0-12.26h4.67c0-.86,0-1.71,0-2.55,0-.48.12-.89-.22-1a4.64,4.64,0,0,0-1.24,0C231.24,67.71,231,69.05,230.49,69.49Zm17.87,10.64v-3h-4.27c-1.33,0-2.81,0-2.84,1.52s1.37,1.54,2.73,1.53Z"/><path class="cls-9" d="M83,73.27v2.85c.42.94.17,2,1.51,4.3a11.29,11.29,0,0,0,2.71,3.13c5.5,4.67,14.53,1.55,14.51-1.33a1.69,1.69,0,0,0-1.36-1.74c-1.59-.31-1.61.93-4.24,1.63a7.77,7.77,0,0,1-5-.43,7.58,7.58,0,1,1,7.6-13,1.83,1.83,0,0,0,3-1.94c-.54-1.92-5.52-3-5.87-3.16H92.7a20.81,20.81,0,0,0-3.65,1.22C83.68,67.6,83.55,72.09,83,73.27Zm56.84,21.2h1.44c.51-.44.95-.67,1.08-1.45.17-1.06-.12-5.73.07-7.63a10.88,10.88,0,0,0,13.76-7c.22-.66.41-2.09.59-2.51V73.42c-.37-.75-.18-1.61-1.24-3.77a11.89,11.89,0,0,0-2.09-2.91,12.27,12.27,0,0,0-2.94-2c-2-1-2.87-.79-3.67-1.14h-2.62c-.49.21-2,.45-2.68.71-5.72,2.12-3.23,4.94-1.58,4.83,1.19-.07,2-1.72,5.13-1.9a7.61,7.61,0,0,1,6.82,11.72A7.77,7.77,0,0,1,148,82c-2.89,1-3.7.1-5.57-.59a2.61,2.61,0,0,0-.63-2.07,2,2,0,0,0-2.25-.09c-1.14.77-.76,3.37-.76,5v8.41C138.79,93.79,139.23,93.94,139.83,94.47ZM117.56,80.08c-.48-1.44-2.31-4.82.22-5.38S119.84,77,121.22,79a7.59,7.59,0,1,0,.94-9.62c.09.82.87,1.74.92,2.85a1.75,1.75,0,0,1-2.06,1.9c-1.94-.22-1-2-3.26-4.48a7.56,7.56,0,1,0-11,10.4A6.77,6.77,0,0,0,109,81.68C112.12,83.1,116.31,82,117.56,80.08ZM129,63.56h-2.84c-.95.42-2.56.23-5,2l-.66.49c-.26.21-.34.34-.56.51A23,23,0,0,0,117,64.62,8.54,8.54,0,0,0,115.2,64c-.56-.16-1.4-.23-1.83-.41H111c-1.16.48-2.24.12-4.87,1.77a11.22,11.22,0,0,0,9.24,20.21A9.72,9.72,0,0,0,119.69,83c1,.37,4.3,4.09,10.37,2.67,10.92-2.54,11.48-17.55,1.58-21.37C130.84,64,129.57,63.84,129,63.56Z"/><text class="cls-10" transform="translate(104.07 122.93)">431000100<tspan x="-54.55" y="22.8">CUEN</tspan><tspan class="cls-11" x="4.99" y="22.8">T</tspan><tspan class="cls-12" x="16.61" y="22.8">A</tspan><tspan class="cls-13" x="31.05" y="22.8" xml:space="preserve"> CORRIENTE</tspan></text></g></g></svg>