<svg xmlns="http://www.w3.org/2000/svg" viewBox="0 0 260.55 124.89"><defs><style>.cls-1,.cls-12,.cls-2,.cls-3,.cls-4{fill:#be0811;}.cls-1,.cls-10,.cls-12,.cls-13,.cls-14,.cls-3,.cls-4,.cls-5,.cls-7,.cls-9{fill-rule:evenodd;}.cls-10,.cls-11,.cls-12,.cls-13,.cls-14,.cls-3,.cls-4,.cls-5,.cls-6,.cls-7,.cls-8,.cls-9{stroke:#211915;}.cls-10,.cls-12,.cls-13,.cls-14,.cls-3,.cls-4,.cls-5,.cls-6,.cls-7,.cls-8,.cls-9{stroke-miterlimit:22.93;}.cls-3{stroke-width:0.43px;}.cls-10,.cls-11,.cls-4,.cls-5,.cls-6,.cls-7,.cls-8,.cls-9{stroke-width:0.43px;}.cls-5{fill:#fded00;}.cls-6{fill:#fff;}.cls-14,.cls-7{fill:#0086c9;}.cls-8{fill:#211915;}.cls-9{fill:#da9500;}.cls-10,.cls-13{fill:#d58400;}.cls-11{fill:none;stroke-miterlimit:3.86;}.cls-12,.cls-13{stroke-width:1.09px;}.cls-14{stroke-width:0.42px;}.cls-15{font-size:18px;font-family:Arimo-Bold, Arimo;font-weight:700;letter-spacing:0.07em;}.cls-16{letter-spacing:0em;}.cls-17{letter-spacing:0.04em;}.cls-18{letter-spacing:0.08em;}</style></defs><title>b7Recurso 30</title><g id="Capa_2" data-name="Capa 2"><g id="Capa_1-2" data-name="Capa 1"><path class="cls-1" d="M158,10.38h0a1.73,1.73,0,0,1,1.72,1.72V26.35A1.73,1.73,0,0,1,158,28.07h0a1.72,1.72,0,0,1-1.72-1.72V12.1A1.72,1.72,0,0,1,158,10.38Z"/><path class="cls-2" d="M180.62,11c.95.15,1.58.72,1.43,1.66a1.74,1.74,0,0,1-2,1.43,25.79,25.79,0,0,0-9-.36,6.66,6.66,0,0,0-4.87,3.19,6,6,0,0,0-.93,2.39,3.4,3.4,0,0,0,.32,2.32l.33-.25c.32.45.42,1.12.92,1.51A10.22,10.22,0,0,0,168.68,24a18.93,18.93,0,0,0,13.71.69,1.72,1.72,0,0,1,2.23,1,1.32,1.32,0,0,1-.84,1.9,22.17,22.17,0,0,1-16.26-.73A13.51,13.51,0,0,1,165,25.33a9.4,9.4,0,0,1-1.95-2h0A6.42,6.42,0,0,1,161.79,19a9.72,9.72,0,0,1,1.35-4c1.79-2.63,4.12-3.6,7.3-4.24a27.85,27.85,0,0,1,10.18.16Z"/><path class="cls-1" d="M174.07,18.19H163.44v2.54h10.63a1.29,1.29,0,0,0,1.3-1.27h0a1.3,1.3,0,0,0-1.3-1.27Z"/><path class="cls-1" d="M190.2,15.59V26.35a1.72,1.72,0,0,1-1.72,1.72h0a1.62,1.62,0,0,1-1.6-1.72V16.66c-.47-4.08,3.63-8.74,8.31-4.38l.16.17h0l.09.12C198,15.9,199.8,19.5,202.12,23h0v0h0l0,0,.39.69c1.38,2,3.33,2,3.4-.53,0-2.21,0-8.29-.15-10.86a1.68,1.68,0,0,1,1.72-1.72h0A1.54,1.54,0,0,1,209,12.33v9c.18,2.81-.65,5.15-1.34,5.82a4.22,4.22,0,0,1-3.46,1.32,3.83,3.83,0,0,1-.68-.08c-2.62-.55-7.8-9.73-8.7-11-.36-.51-.7-1-1-1.44s-.57-.79-.9-1.22c-1.52-1.32-2.7-.25-2.7.87Zm12,7.44a1.74,1.74,0,0,1,.22.78l-.22-.78Z"/><path class="cls-2" d="M130.84,11.52a1.73,1.73,0,0,0-3.19,1.36,45.69,45.69,0,0,0,7.27,11.55c1.91,2.18,3.68,3.79,5.52,4s3.51-.92,5.8-3a24.51,24.51,0,0,0,4.74-6.2A62.92,62.92,0,0,0,154.19,13,1.73,1.73,0,0,0,151,11.59a57.06,57.06,0,0,1-3.08,5.91c-1,1.72-4.85,7.79-7.29,7.5-3-.36-8.21-9.75-9.81-13.48Z"/><path class="cls-1" d="M124.26,10.38h0A1.73,1.73,0,0,1,126,12.1V26.35a1.73,1.73,0,0,1-1.72,1.72h0a1.72,1.72,0,0,1-1.72-1.72V12.1a1.72,1.72,0,0,1,1.72-1.72Z"/><path class="cls-2" d="M51.26,14.48a1.67,1.67,0,0,1-2.14-1.08,1.73,1.73,0,0,1,1.19-2.14c8-1.52,12.77-.39,16.69,1.47a11.66,11.66,0,0,1,3.93,3.59,7.08,7.08,0,0,1,1,4.31,7.79,7.79,0,0,1-4.12,6,13.63,13.63,0,0,1-4,1.5,24.47,24.47,0,0,1-3.94.52,19.16,19.16,0,0,1-3.57,0,11,11,0,0,1-3.64-1.11c-.51-.24-1.12-.71-1.22-1.22l-.05.13V16.63c.59-1.7,3-1.19,3,0l.22,8c-.37,1.63,4.08,1.05,5.05,1a21.91,21.91,0,0,0,3.41-.43,10.3,10.3,0,0,0,3-1.13,5.05,5.05,0,0,0,2.41-3.76,4.25,4.25,0,0,0-.59-2.51,7,7,0,0,0-2.4-2.45c-3-1.7-7.35-2.69-14.24-.86Z"/><path class="cls-2" d="M97.26,11.52a1.73,1.73,0,0,0-3.19,1.36,45.69,45.69,0,0,0,7.27,11.55c1.91,2.18,3.67,3.79,5.52,4s3.5-.92,5.79-3a24.28,24.28,0,0,0,4.74-6.2A60.86,60.86,0,0,0,120.6,13a1.73,1.73,0,0,0-3.16-1.41,59.36,59.36,0,0,1-3.09,5.91c-1,1.72-4.84,7.79-7.28,7.5-3-.36-8.21-9.75-9.81-13.48Z"/><path class="cls-2" d="M94.86,27.41a1.73,1.73,0,1,0,3.19-1.35,45.41,45.41,0,0,0-7.27-11.55c-1.9-2.18-3.67-3.79-5.51-4s-3.51.92-5.8,3a24.28,24.28,0,0,0-4.74,6.2,60.86,60.86,0,0,0-3.21,6.28,1.73,1.73,0,0,0,3.16,1.41,60.53,60.53,0,0,1,3.09-5.92c1-1.71,4.85-7.78,7.29-7.49,3,.36,8.2,9.75,9.8,13.47Z"/><path class="cls-2" d="M213.66,14.48a1.69,1.69,0,0,1-2.15-1.08,1.74,1.74,0,0,1,1.2-2.14c8-1.52,12.77-.39,16.68,1.47a11.61,11.61,0,0,1,3.94,3.59,7.08,7.08,0,0,1,1,4.31,7.8,7.8,0,0,1-4.13,6,13.42,13.42,0,0,1-4,1.5,24.5,24.5,0,0,1-3.93.52,19.16,19.16,0,0,1-3.57,0,11,11,0,0,1-3.64-1.11c-.51-.24-1.12-.71-1.22-1.22l0,.13V16.63c.58-1.7,3-1.19,3,0l.23,8c-.38,1.63,4.08,1.05,5,1a22.22,22.22,0,0,0,3.41-.43,10.24,10.24,0,0,0,3-1.13,5.07,5.07,0,0,0,2.42-3.76,4.25,4.25,0,0,0-.59-2.51,6.93,6.93,0,0,0-2.41-2.45c-3-1.7-7.34-2.69-14.23-.86Z"/><path class="cls-2" d="M237.05,27.41a1.73,1.73,0,1,1-3.19-1.35,45.69,45.69,0,0,1,7.27-11.55c1.91-2.18,3.68-3.79,5.52-4s3.51.92,5.8,3a24.51,24.51,0,0,1,4.74,6.2,60.59,60.59,0,0,1,3.2,6.28,1.73,1.73,0,0,1-3.16,1.41,58.15,58.15,0,0,0-3.08-5.92c-1-1.71-4.85-7.78-7.29-7.49-3,.36-8.21,9.75-9.81,13.47Z"/><path class="cls-3" d="M33.35,14.15a10.26,10.26,0,0,0,2.47,7.49C41,27.84,34,34.48,26.06,32.87a37.67,37.67,0,0,1-6.68.65,38.09,38.09,0,0,1-6.71-.65c-7.94,1.61-15-5-9.9-11.23a10.26,10.26,0,0,0,2.47-7.49Z"/><path class="cls-4" d="M25.46,31.59a4.79,4.79,0,0,1,1.38-1.91c.45-.35,1.2-.22.82.47a24.41,24.41,0,0,0-1.93,1.78c-.14.15-.27-.34-.27-.34Zm-10.77-.81h0a4.84,4.84,0,0,0-.95-2.16c-.36-.43-1.13-.45-.9.29.06.21,1,1.14,1.52,2.14.1.19.33-.27.33-.27Zm-1.42.81h0a4.83,4.83,0,0,0-1.37-1.91c-.45-.35-1.21-.22-.83.47A25.81,25.81,0,0,1,13,31.93c.13.15.26-.34.26-.34Zm10.78-.81h0A4.77,4.77,0,0,1,25,28.62c.37-.43,1.14-.45.91.29-.07.21-1,1.14-1.53,2.14-.09.19-.32-.27-.32-.27Z"/><path class="cls-5" d="M23.06,30.62s2.36-7.55-1.2-12a2.92,2.92,0,0,1-1-.49,1.53,1.53,0,0,0-1.32-.7,2.62,2.62,0,0,0-1.64.7,2.8,2.8,0,0,1-1.17.49c-3.56,4.49-1.13,12.08-1.13,12.08a11.5,11.5,0,0,1,7.47,0Z"/><path class="cls-6" d="M22,25.36a.65.65,0,1,1,.65.64.65.65,0,0,1-.65-.64Z"/><path class="cls-7" d="M6.88,19.1h4.58a1.31,1.31,0,0,1,1.31,1.3v3.06a1.31,1.31,0,0,1-1.31,1.3H6.88a1.31,1.31,0,0,1-1.31-1.3V20.4a1.31,1.31,0,0,1,1.31-1.3Z"/><path class="cls-8" d="M7.41,19.83H11a1,1,0,0,1,1,1v2.24a1,1,0,0,1-1,1H7.41a1,1,0,0,1-1-1V20.81a1,1,0,0,1,1-1Z"/><path class="cls-9" d="M12,22.49c-1.63-.17-2.2-2.07-2.34-2.66H11a1,1,0,0,1,1,1v1.68Z"/><path class="cls-9" d="M8.78,19.83c-.1.54-.62,2.58-2.36,2.66V20.81a1,1,0,0,1,1-1Z"/><path class="cls-7" d="M27.25,19.1h4.57a1.31,1.31,0,0,1,1.32,1.3v3.06a1.31,1.31,0,0,1-1.32,1.3H27.25a1.31,1.31,0,0,1-1.32-1.3V20.4a1.31,1.31,0,0,1,1.32-1.3Z"/><path class="cls-8" d="M27.77,19.83H31.4a1,1,0,0,1,1,1v2.24a1,1,0,0,1-1,1H27.77a1,1,0,0,1-1-1V20.81a1,1,0,0,1,1-1Z"/><path class="cls-9" d="M32.39,22.49c-1.64-.17-2.21-2.07-2.35-2.66H31.4a1,1,0,0,1,1,1v1.68Z"/><path class="cls-9" d="M29.15,19.83c-.11.54-.62,2.58-2.37,2.66V20.81a1,1,0,0,1,1-1Z"/><path class="cls-10" d="M14.71,30.18a2.65,2.65,0,0,0-1.7.91,1.23,1.23,0,0,0,.62,1.78,24.48,24.48,0,0,0,5.66.52A20,20,0,0,0,25,32.87a1.24,1.24,0,0,0,.62-1.78,2.63,2.63,0,0,0-1.7-.91c-.12-.7-9.07-.41-9.19,0Z"/><path class="cls-11" d="M14.68,30.16a34,34,0,0,1,9.27,0"/><path class="cls-12" d="M28.7,5.37V1.68l4.44-.26.19,5.84c-2.41-1.6-2.48-.89-4.63-1.89Z"/><path class="cls-13" d="M19.26.55a5.61,5.61,0,0,0-1.15.24S7.38,4.49,1.47,10.36C-.2,12,.52,14.15,2.63,14.15H35.89c2.09,0,2.83-2.14,1.16-3.79C31.14,4.49,20.41.79,20.41.79A5.61,5.61,0,0,0,19.26.55Z"/><path class="cls-14" d="M21.18,17.17a6.65,6.65,0,0,1,2.25,2A9.92,9.92,0,0,1,25,26.77l2.73,2.7c1,1-.59,2.58-1.32,3.57h-2a1.78,1.78,0,0,0,.24-1.78c-.32-.6-1.48-.79-1.48-.79s.54-1.22-.34-1.51c0,0,1.69-4.39-.18-8.39a4.3,4.3,0,0,0-3.06-2.72,2.64,2.64,0,0,0-1.1.15,4.57,4.57,0,0,0-2.65,2.74c-1.84,3.89-.06,8.22-.06,8.22-.88.29-.34,1.51-.34,1.51s-1.15.19-1.48.79A1.78,1.78,0,0,0,14.26,33h-2c-.49-.67-2.08-2.54-1.56-3.73a10.59,10.59,0,0,1,3-2.54,9.89,9.89,0,0,1,1.39-7.32A6.76,6.76,0,0,1,18,17a3.05,3.05,0,0,1,3.15.14Z"/><text class="cls-15" transform="translate(62.65 53.31)">057369992573<tspan x="-34.63" y="21.6">CUEN</tspan><tspan class="cls-16" x="21.77" y="21.6">T</tspan><tspan class="cls-17" x="32.78" y="21.6">A</tspan><tspan class="cls-18" x="46.46" y="21.6" xml:space="preserve"> CORRIENTE</tspan></text></g></g></svg>