<svg xmlns="http://www.w3.org/2000/svg" viewBox="0 0 393.63 161.26"><defs><style>.cls-1{font-size:18px;font-family:Arimo-Bold, Arimo;font-weight:700;}.cls-1,.cls-7{letter-spacing:0.07em;}.cls-2{letter-spacing:0.04em;}.cls-3{letter-spacing:0.08em;}.cls-4{letter-spacing:0.06em;}.cls-5{letter-spacing:0.06em;}.cls-6{letter-spacing:0em;}.cls-8{letter-spacing:0.02em;}.cls-9{fill:#f5e840;}.cls-10{fill:#211915;fill-rule:evenodd;}</style></defs><title>b6Recurso 29</title><g id="Capa_2" data-name="Capa 2"><g id="Capa_1-2" data-name="Capa 1"><text class="cls-1" transform="translate(1.38 111.29)">SOLO CEDUL<tspan class="cls-2" x="131.5" y="0">A</tspan><tspan class="cls-3" x="145.18" y="0" xml:space="preserve"> DE</tspan><tspan class="cls-4" x="179.24" y="0">L</tspan><tspan x="191.26" y="0" xml:space="preserve"> TITULAR DE</tspan><tspan class="cls-5" x="318.1" y="0">L</tspan><tspan x="330.12" y="0" xml:space="preserve"> PLAN</tspan><tspan class="cls-4"><tspan x="-1.38" y="21.6">Y</tspan><tspan class="cls-3" x="11.65" y="21.6"> </tspan><tspan class="cls-6" x="18" y="21.6">V</tspan><tspan class="cls-3" x="30.02" y="21.6">ALOR</tspan><tspan class="cls-2" x="86.42" y="21.6" xml:space="preserve"> A</tspan><tspan class="cls-7" x="105.78" y="21.6" xml:space="preserve"> CANCELAR CÓDIGO: </tspan><tspan class="cls-8" x="325.08" y="21.6">1</tspan><tspan class="cls-3" x="335.44" y="21.6">10997</tspan></tspan></text><rect class="cls-9" x="66.43" width="260" height="88.33"/><path class="cls-10" d="M215.63,43.24h0c.33-4,2.16-7.3,6.24-7.33s5.94,3.43,6,7.33Zm-46.31-.07h0c.48-3.94,2-7.19,6.17-7.26,4-.07,6,3.28,6.16,7.33Zm18.09,15.64h0l-1.82-4.3c-1.72.47-2.77,1.31-5,1.71-5.8,1-11.05-1.71-11.16-8.31h18.86c0-6.6-1.17-14.19-8.54-16.49a13.33,13.33,0,0,0-10.35,1c-10.21,6.12-9.7,29.43,8.2,29.21C181,61.58,185.4,60.63,187.41,58.81ZM238,47h0c.4,17.32,19.22,16.37,24.29,11.78a21.55,21.55,0,0,0-1.9-4.41c-3.46,1.42-6.85,3-11,1-6.53-3.21-6-15.36.55-18.38a11.53,11.53,0,0,1,8.75.07c1,.44,1.64.91,2.41,1.24V32.66c-3.87-1.53-6.67-2.55-11.56-1.46C242.07,32.92,237.81,39.66,238,47Zm-43.54-15.5h0l.07-6.49c-.07-2.29,2-5.87,4.85-7.18,2.63-1.21,7.63-1.28,10.11.33l-1.21,5.14c-7.4-1.64-7.36-.26-7.36,8.2h8l-2.07,5.14-6,0V60.92a31.58,31.58,0,0,1-6.46-.07V36.75l-3.24-.08-2-5.1Zm74.39,5.33.08,17.54a9.54,9.54,0,0,0,.69,3.31c2.37,5.18,10.57,4.71,15.35,1.61l-2.11-4.41c-1.57.58-3.43,1.89-5.66,1.2-2-.58-1.82-2.92-1.82-5.21V36.71l13.24,0L299.21,61c.22,1.06-2.15,5.26-2.66,6-3.68,5.18-7.11,3-10.06,2.33L285,74.56c5.62,2.15,11.49,1.35,14.77-2.22,2.91-3.17,4.59-7.62,6.42-12.58l10.21-28.23h-6.79l-7.18,21.7c-.73-.8-6.27-14.7-7.29-17.07-1.39-3.21-3.39-4.59-7.66-4.63-4,0-8.06,0-12.18,0V22.82a49.11,49.11,0,0,0-6.53,2.08v6.52l-5.25.08,0,5.21ZM134.72,10h0c13.53,4.74,21.39,18.28,18.34,34.22C149.52,62.75,132.43,78.05,113.87,80c-1.47,0-1.5-.88-1.54-2.12.07-2.57.16-5.16.23-7.73,0-.38-.11-.5-.28-.55a29.21,29.21,0,0,1-5.64-1.19,34.88,34.88,0,0,1-6-3.23c-.93-.46-.81-2.6-.79-3.43.17-1.52,1.29-5.07,3.09-5.23,2.17-.12,3.19,1,5.33,2.07,3.76,1.78,9,2.83,12.92,1A3.27,3.27,0,0,0,122.61,55c-1.53-3.19-8.83-5.81-12.14-7.4-7.92-3.38-12.35-10.24-10.94-18.4,1-6,6.68-10.58,12.58-11.42V14.85C104.83,17,99.29,21.16,94.32,26A38.33,38.33,0,0,0,82.51,53.35c.58,13.92,7.81,20.08,15.37,24.7-13-5-20.41-18.3-17.44-33.88,3.64-19.09,21.54-34.69,40.69-36,.76.46.81.53,1.21,1.55-.16,2.4-.31,4.81-.47,7.21,3.78.76,7.35,1.83,10.23,4.28.09,5.52-4,7.83-5.62,7,.07-.26-6.23-2-7.54-2.31a7.93,7.93,0,0,0-4.73.55c-1.86.88-2.74,2.19-1.86,4.23a8.51,8.51,0,0,0,3.4,3.38c4,2.14,8,4.31,11.92,6.45A18.1,18.1,0,0,1,135.12,48a15.86,15.86,0,0,1,.74,9.13,14.84,14.84,0,0,1-7.16,9.31,20.34,20.34,0,0,1-6.14,2.35c-.07,1.29-.12,2.55-.19,3.83a.63.63,0,0,0,.52,0,44.49,44.49,0,0,0,12.3-6.78c5-4.4,9.66-9,12.11-15a36.44,36.44,0,0,0,3.57-11.35C152.23,27.37,147.8,16,134.72,10ZM124.27,4.86h0c21.87,0,36.24,17.58,32.1,39.31s-25.25,39.3-47.11,39.3S73,65.89,77.14,44.17,102.38,4.86,124.27,4.86Zm84.8,42.61h0c.69,10.9,9.15,16,19.55,13.6,2.29-.55,3.39-1.42,5.1-2l-1.82-4.59c-2.63.8-6,3.06-10.76,1.42a8.17,8.17,0,0,1-5.43-8l18.89,0c0-8.61-2.59-17-12.51-17.11C212.39,30.69,208.56,38.86,209.07,47.47Z"/></g></g></svg>