<svg xmlns="http://www.w3.org/2000/svg" viewBox="0 0 260 153.23"><defs><style>.cls-1{fill:#00224b;}.cls-2{fill:#0086c9;}.cls-3{font-size:18px;font-family:Arimo-Bold, Arimo;font-weight:700;letter-spacing:0.08em;}.cls-4{letter-spacing:0em;}.cls-5{letter-spacing:0.04em;}</style></defs><title>b4Recurso 27</title><g id="Capa_2" data-name="Capa 2"><g id="Capa_1-2" data-name="Capa 1"><path class="cls-1" d="M0,69.37V91H9.34c4.42,0,7.89-1.57,7.89-6.52a4.89,4.89,0,0,0-2.86-4.74A4.36,4.36,0,0,0,15.87,78a6.52,6.52,0,0,0,.56-2.84c0-3.58-2.51-5.53-6.77-5.76l-.88,0Zm12,5.78c0,2.13-.57,3.07-2.17,3.28l-.74,0H4.38V72.4h4.4C11.29,72.4,12,73,12,75.15Zm.8,9.33c0,2.5-.87,3.29-2.66,3.45l-.82,0h-5v-6.5H9.11C10.68,81.47,12.82,81.49,12.82,84.48Zm51,3.7a28.26,28.26,0,0,1-4.16.52c-1.48.08-2.36-.19-2.87-1s-.65-2.22-.65-4.39c0-4.33.57-5.58,3.52-5.45.88,0,2.77.44,4.18.58l.4-2.53a39.47,39.47,0,0,0-4.44-.63c-6.57-.28-8.17,2.48-8.17,8s1.6,8.28,8.18,8a31.61,31.61,0,0,0,4.54-.56Z"/><path class="cls-1" d="M112.1,88.68c-2.21,0-3-1-3.19-3.16l-.07-1h10.49V82.75c0-5.13-2.63-7.5-7.67-7.5-4.65,0-7.4,2.13-7.4,8,0,2.34.33,4.34,1.47,5.77s3.08,2.27,6.32,2.27a30.34,30.34,0,0,0,4.93-.43l1.75-.33-.48-2.6A40.56,40.56,0,0,1,112.1,88.68Zm-2.47-9.94a2.52,2.52,0,0,1,2.19-.87c1.86,0,2.75.72,3,3l.08,1.06h-6.08A5.43,5.43,0,0,1,109.63,78.74ZM95.12,75.23c-5.56,0-7.21,2.94-7.21,7.7,0,5.35,1.51,8.36,8.84,8.36a40,40,0,0,0,4.06-.2l1.67-.17V69.38H98.13v6A23.63,23.63,0,0,0,95.12,75.23Zm1,13.41c-3.25-.18-3.7-1.84-3.7-5.66A8.87,8.87,0,0,1,93,79.16a2.51,2.51,0,0,1,2.16-1.32,8.07,8.07,0,0,1,2.38.08l.63.14V88.59A10.12,10.12,0,0,1,96.12,88.64Zm-17.3.52C80,87.77,80.41,85.71,80.41,83c0-5-2.58-7.46-7-7.74l-.9,0c-5.4,0-8,2.26-8,7.72,0,5.78,1.81,8.3,8,8.3C75.67,91.27,77.64,90.55,78.82,89.16Zm-6.27-.49c-2.94,0-3.54-1.2-3.54-5.7,0-2.11.23-3.38.78-4.13s1.44-1,2.76-1c2,0,3.23,1,3.38,4.44L76,83C76,87.24,75.43,88.67,72.55,88.67ZM26.14,77.92a1.71,1.71,0,0,1,1.94,1.78l0,.56v.59s-2.18,0-4,.23c-4.13.48-5.7,2.35-5.7,5,0,2.9,2.21,4.73,5.79,5.11a30.25,30.25,0,0,0,6.26-.11l2-.22V80.43a4.77,4.77,0,0,0-1.54-3.77,7.1,7.1,0,0,0-4.78-1.4,31.81,31.81,0,0,0-6.27.88l.48,2.62A32.38,32.38,0,0,1,26.14,77.92ZM24.89,88.5a2.19,2.19,0,0,1-2-2.45,2.34,2.34,0,0,1,.61-1.73,2.85,2.85,0,0,1,1.71-.73l1.38-.12,1.48,0V88.5A10.45,10.45,0,0,1,24.89,88.5Z"/><path class="cls-1" d="M34.78,91h4.3V78.3a13.23,13.23,0,0,1,3.17-.46c2,0,2.92,1,3.12,3.78l0,1.32v8h4.37v-8c0-2.5-.47-4.42-1.65-5.73s-3.07-2-5.88-2a18.66,18.66,0,0,0-6.53,1.21l-.94.35Z"/><path class="cls-2" d="M161.15,88.18a28.16,28.16,0,0,1-4.18.52c-1.48.08-2.35-.19-2.86-1s-.65-2.22-.65-4.39c0-4.33.56-5.58,3.51-5.45.9,0,2.78.44,4.18.58l.41-2.53a39.47,39.47,0,0,0-4.44-.63c-6.58-.28-8.17,2.48-8.17,8s1.61,8.28,8.18,8a31.65,31.65,0,0,0,4.53-.56Zm13.41,0a28.21,28.21,0,0,1-4.17.52c-1.47.08-2.35-.19-2.86-1s-.65-2.22-.65-4.39c0-4.33.56-5.58,3.51-5.45.89,0,2.78.44,4.18.58l.41-2.53a40,40,0,0,0-4.43-.63c-6.59-.28-8.19,2.48-8.19,8s1.61,8.28,8.19,8a31.82,31.82,0,0,0,4.53-.56Z"/><path class="cls-2" d="M236,72v3.65h-2.66v2.62H236V85.9c0,3.62.65,5.39,4.48,5.39a18.54,18.54,0,0,0,2.84-.21l1.06-.18-.51-2.56a12,12,0,0,1-2.54.12c-.56-.08-.78-.48-.86-1.43l0-1.13V78.23h3.44V75.61h-3.44V72ZM217.36,91h4.29V78.3a13.23,13.23,0,0,1,3.17-.46c2,0,2.93,1,3.12,3.78l.05,1.32v8h4.37v-8c0-2.5-.48-4.42-1.66-5.73s-3.06-2-5.88-2a18.69,18.69,0,0,0-6.52,1.21l-.94.35ZM190.77,75.23c-5.55,0-7.21,2.94-7.21,7.7,0,5.35,1.51,8.36,8.84,8.36.86,0,1.68,0,2.59-.11l3.14-.26V69.38h-4.35v6A23.63,23.63,0,0,0,190.77,75.23Zm1.76,13.43-.77,0c-3.24-.16-3.69-1.84-3.69-5.66a9,9,0,0,1,.54-3.82,2.49,2.49,0,0,1,2.16-1.32,8,8,0,0,1,2.38.08l.63.14V88.59C193.41,88.6,192.91,88.66,192.53,88.66ZM177.09,73.2h4.31V70h-4.31Zm0,17.8h4.31V75.54h-4.31Zm-40-21.86c-7.07,0-10.32,3-10.32,10.62,0,4.06.56,6.93,2.13,8.78s4.15,2.71,8.19,2.71c7.64,0,9.86-3.43,10.11-10l0-1.37C147.23,72.32,143.54,69.14,137.1,69.14Zm0,19.08c-4.87,0-5.84-2-5.84-8.46,0-6.06,1.62-7.62,5.84-7.62a5,5,0,0,1,4.13,1.7c1,1.21,1.53,3.13,1.53,6,0,5.59-.75,8.06-4.81,8.35Z"/><path class="cls-2" d="M189.53,40.78,216,67.27l26.52-26.49-6.17-6.16L216,54.94,201.86,40.78,216,26.62l6.05,6,6.16-6.16L216,14.29Zm63.23,47.9c-2.21,0-2.95-1-3.18-3.16l-.07-1H260V82.75c0-5.13-2.63-7.5-7.66-7.5-4.67,0-7.39,2.13-7.39,8,0,2.34.32,4.34,1.46,5.77s3.08,2.27,6.32,2.27a30.34,30.34,0,0,0,4.93-.43l1.74-.33-.47-2.6A40.66,40.66,0,0,1,252.76,88.68Zm-2.46-9.94a2.52,2.52,0,0,1,2.19-.87c1.86,0,2.75.72,3,3l.08,1.06h-6.08A5.59,5.59,0,0,1,250.3,78.74Zm-42.2,9.92c-2.23,0-3-1-3.2-3.15l-.07-1h10.48V82.72c0-5.11-2.62-7.48-7.65-7.48-4.67,0-7.4,2.13-7.4,8,0,2.33.32,4.34,1.46,5.77s3.09,2.27,6.33,2.27a29.19,29.19,0,0,0,4.92-.44l1.75-.32-.46-2.62A38.6,38.6,0,0,1,208.1,88.66Zm-2.48-9.94a2.53,2.53,0,0,1,2.2-.87c1.85,0,2.74.72,3,3l.08,1.07h-6.08A5.65,5.65,0,0,1,205.62,78.72Z"/><polygon class="cls-2" points="242.54 26.5 216.04 0 189.52 26.5 195.68 32.66 216.04 12.32 230.21 26.5 216.04 40.66 209.99 34.62 203.82 40.78 216.04 52.98 242.54 26.5"/><text class="cls-3" transform="translate(77.13 124.85)">836001479<tspan x="-51.68" y="21.6">CUEN</tspan><tspan class="cls-4" x="4.73" y="21.6">T</tspan><tspan class="cls-5" x="15.74" y="21.6">A</tspan><tspan x="29.42" y="21.6" xml:space="preserve"> CORRIENTE</tspan></text></g></g></svg>