<svg xmlns="http://www.w3.org/2000/svg" xmlns:xlink="http://www.w3.org/1999/xlink" viewBox="0 0 390.87 125.2"><defs><style>.cls-1{fill:url(#Degradado_sin_nombre_53);}.cls-2{fill:#2f2978;}.cls-2,.cls-3{fill-rule:evenodd;}.cls-3{fill:url(#Degradado_sin_nombre_11);}.cls-4{font-size:18px;font-family:Arimo-Bold, Arimo;font-weight:700;}.cls-4,.cls-8{letter-spacing:0.08em;}.cls-5{letter-spacing:0.04em;}.cls-6{letter-spacing:0.06em;}.cls-7{letter-spacing:0.07em;}.cls-9{letter-spacing:0em;}.cls-10{letter-spacing:0.04em;}</style><radialGradient id="Degradado_sin_nombre_53" cx="143.27" cy="48.02" r="16.13" gradientTransform="matrix(0.88, -1.52, 1.45, 0.84, -93.7, 207.8)" gradientUnits="userSpaceOnUse"><stop offset="0.1" stop-color="#6eafd1"/><stop offset="0.5" stop-color="#208ec3"/><stop offset="0.52" stop-color="#2188be"/><stop offset="0.74" stop-color="#2d5598"/><stop offset="0.91" stop-color="#343581"/><stop offset="1" stop-color="#372978"/></radialGradient><linearGradient id="Degradado_sin_nombre_11" x1="86.61" y1="57.11" x2="118.03" y2="25.69" gradientUnits="userSpaceOnUse"><stop offset="0" stop-color="#a5a4a4"/><stop offset="0.5" stop-color="#fff"/><stop offset="1" stop-color="#a5a4a4"/></linearGradient></defs><title>b2Recurso 25</title><g id="Capa_2" data-name="Capa 2"><g id="Capa_1-2" data-name="Capa 1"><circle class="cls-1" cx="93.55" cy="41.65" r="28.11"/><path class="cls-2" d="M249.66,47.72H237.15a6.59,6.59,0,0,1-5.64-3.39,13.58,13.58,0,0,1-2.09-7.59,12.62,12.62,0,0,1,2.31-7.65,7.26,7.26,0,0,1,6.07-3.32h11.64v4.05H238.89A3.79,3.79,0,0,0,235.54,32a9.11,9.11,0,0,0-1.15,4.73,10.7,10.7,0,0,0,1.07,5A3.71,3.71,0,0,0,238.79,44h6.31V38.42h-6.45V34.78h11Zm-38-15.82h9.86c1.6,0,2.69,1,2.69,2.94l0,3.7h-4.2V36.21c0-.61-.39-1.38-.89-1.39h-2.69l0,12.94h-4.8Zm-3.05,15.68h-7.89a6.56,6.56,0,0,1-5-2.33,7.71,7.71,0,0,1-2.13-5.37,8.05,8.05,0,0,1,2.32-5.73A7,7,0,0,1,201,31.73h7.51V35H203a8.17,8.17,0,0,0-1.77.17,3.41,3.41,0,0,0-1.34.65,3,3,0,0,0-1.13,2.46h9.71v3.29h-9.71a3.67,3.67,0,0,0,.18,1.23,2.65,2.65,0,0,0,.73,1,2.81,2.81,0,0,0,1.31.66,9,9,0,0,0,1.87.17h5.68Zm-16.62-8.17a8.34,8.34,0,0,1-2.13,6,7.34,7.34,0,0,1-5.58,2.24h-5v5.75h-4.66V31.9h9.19A8.35,8.35,0,0,1,189.86,34a7.23,7.23,0,0,1,2.08,5.38Zm-4.66.25a4.21,4.21,0,0,0-1.37-3.24,4.89,4.89,0,0,0-3.43-1.26h-3.24v9.18h3.58A4.27,4.27,0,0,0,186,43.05a4.67,4.67,0,0,0,1.24-3.39Zm-16.52,8h-8.95a18.27,18.27,0,0,1-3.46-.22,4.64,4.64,0,0,1-2.69-1.58,4.91,4.91,0,0,1-1.14-3.19V31.9h4.67V42.33a1.6,1.6,0,0,0,.74,1.31,2.57,2.57,0,0,0,1.58.55h4.58V31.9h4.67ZM152.11,41a6.54,6.54,0,0,1-1.85,4.71,6.31,6.31,0,0,1-4.72,1.91h-15v-3.8H142.9a3.63,3.63,0,0,0,2.1-.59,2.1,2.1,0,0,0,1-1.83q0-2.73-3.83-2.73h-6.27a7.27,7.27,0,0,1-4.74-1.66,5.26,5.26,0,0,1-2-4.25,5.92,5.92,0,0,1,2-4.63,7.62,7.62,0,0,1,5.25-1.77h14.39v3.65H138a2.77,2.77,0,0,0-1.72.71,2.12,2.12,0,0,0-.86,1.67,2.36,2.36,0,0,0,.83,1.83,3,3,0,0,0,2,.74h6.91a7.29,7.29,0,0,1,5.06,1.66A5.59,5.59,0,0,1,152.11,41Zm129.81,6.68h-5.49l-5.05-8.58h-5.24v8.58h-4.6v-22h14.21a4.8,4.8,0,0,1,4,2.12,8.13,8.13,0,0,1,1.58,5,5.86,5.86,0,0,1-4.81,5.89Zm-6.34-15.19a2.25,2.25,0,0,0-.95-1.94,4.33,4.33,0,0,0-2.58-.69h-5.49V35h5.62a4.56,4.56,0,0,0,2.2-.53,2.08,2.08,0,0,0,1.2-1.89Zm49.85,8.35a7.22,7.22,0,0,1-1.7,4.86,5.48,5.48,0,0,1-4.34,2H305.56V43.79H317a3.06,3.06,0,0,0,1.93-.6,2.28,2.28,0,0,0,.9-1.9c0-1.88-1.18-2.81-3.52-2.81h-5.76a6.22,6.22,0,0,1-4.36-1.73,5.69,5.69,0,0,1-1.87-4.39,6.44,6.44,0,0,1,1.83-4.78,6.51,6.51,0,0,1,4.82-1.84h13.22v3.78H312.49a2.38,2.38,0,0,0-1.58.73,2.28,2.28,0,0,0-.79,1.73,2.61,2.61,0,0,0,2.62,2.66h6.35a6.25,6.25,0,0,1,4.65,1.71,6.15,6.15,0,0,1,1.69,4.53Zm-22.24-4.34q0,6.28-3.08,9c-1.67,1.46-4.11,2.19-7.3,2.19-3.55,0-6.16-.84-7.85-2.53-1.86-1.84-2.78-4.81-2.78-8.9q0-5,2.48-7.82c1.8-2,4.48-3,8.07-3q5.91,0,8.33,2.93,2.13,2.58,2.13,8.19Zm-4.85-.12A8.52,8.52,0,0,0,297,31.37a5.08,5.08,0,0,0-4.44-2.1,4.85,4.85,0,0,0-4.36,2.25,8.79,8.79,0,0,0-1.23,4.9,10.47,10.47,0,0,0,1,5.14q1.37,2.31,5.05,2.31a4.55,4.55,0,0,0,4.36-2.25,11,11,0,0,0,1-5.2Zm-40.95,11.3H252.8v-22h4.59Z"/><path class="cls-3" d="M134.77,78.47c-60-20.3-78.88-81.28-37.25-73.28C43-23.15,62.77,73.6,134.77,78.47Z"/><text class="cls-4" transform="translate(0 96.82)">SOLO CEDUL<tspan class="cls-5" x="131.5" y="0">A</tspan><tspan x="145.18" y="0" xml:space="preserve"> DE</tspan><tspan class="cls-6" x="179.24" y="0">L</tspan><tspan x="191.26" y="0" xml:space="preserve"> TITULAR DE</tspan><tspan class="cls-6" x="318.1" y="0">L</tspan><tspan class="cls-7" x="330.12" y="0" xml:space="preserve"> PLAN</tspan><tspan class="cls-6"><tspan x="82.78" y="21.6">Y</tspan><tspan class="cls-8" x="95.81" y="21.6"> </tspan><tspan class="cls-9" x="102.16" y="21.6">V</tspan><tspan class="cls-8" x="114.18" y="21.6">ALOR</tspan><tspan class="cls-10" x="170.58" y="21.6" xml:space="preserve"> A</tspan><tspan class="cls-8" x="189.94" y="21.6" xml:space="preserve"> CANCELAR</tspan></tspan></text></g></g></svg>