<?xml version="1.0" standalone="no"?>
<!DOCTYPE svg PUBLIC "-//W3C//DTD SVG 20010904//EN"
 "http://www.w3.org/TR/2001/REC-SVG-20010904/DTD/svg10.dtd">
<svg version="1.0" xmlns="http://www.w3.org/2000/svg"
 width="1476.000000pt" height="60.000000pt" viewBox="0 0 1476.000000 60.000000"
 preserveAspectRatio="xMidYMid meet">
<metadata>
Created by potrace 1.16, written by Peter Selinger 2001-2019
</metadata>
<g transform="translate(0.000000,60.000000) scale(0.100000,-0.100000)"
fill="#000000" stroke="none">
<path d="M2185 551 c-3 -5 -4 -59 -3 -119 l1 -110 24 11 c18 8 29 8 44 -1 30
-19 59 -15 59 8 0 26 17 26 25 0 6 -18 47 -30 44 -12 -3 18 2 32 11 32 6 0 10
-9 10 -20 0 -11 5 -20 10 -20 6 0 10 25 10 55 0 47 -3 55 -19 55 -12 0 -21 -9
-25 -25 -4 -14 -13 -25 -21 -25 -8 0 -17 11 -21 25 -4 16 -13 25 -25 25 -15 0
-19 -7 -19 -35 0 -41 -12 -45 -28 -9 -15 32 3 54 47 54 22 0 31 -6 37 -22 l7
-23 10 23 c10 22 11 22 238 22 168 -1 229 -4 233 -13 3 -9 5 -9 5 1 1 7 14 12
34 11 30 -1 30 -2 7 -8 -21 -6 -25 -13 -22 -39 3 -42 -11 -41 -27 3 -13 36
-43 48 -55 23 -5 -10 -7 -10 -12 0 -3 6 -16 12 -28 12 -12 0 -28 -6 -35 -12
-11 -10 -14 -10 -18 0 -6 16 -30 16 -36 0 -4 -10 -7 -10 -18 0 -7 6 -30 12
-51 12 l-38 0 0 -55 c0 -30 5 -55 10 -55 6 0 10 7 10 15 0 9 9 15 25 15 16 0
25 -6 25 -15 0 -19 66 -21 73 -2 4 10 7 10 18 0 16 -15 69 -17 69 -3 0 6 14
10 30 10 17 0 30 -4 30 -10 0 -5 11 -10 25 -10 20 0 25 5 25 25 0 14 4 25 9
25 14 0 20 -37 8 -49 -15 -15 -70 -14 -85 1 -8 8 -15 8 -25 -1 -18 -14 -547
-15 -547 -1 0 6 -7 10 -15 10 -8 0 -15 -4 -15 -10 0 -5 -7 -10 -15 -10 -13 0
-15 -21 -13 -152 l3 -153 404 -3 c290 -1 408 1 417 9 10 8 14 36 12 101 -2 80
-4 91 -22 97 -19 8 -19 8 2 13 12 4 22 11 22 17 0 15 -497 13 -521 -2 -14 -9
-21 -9 -31 1 -6 6 -34 12 -60 12 l-48 0 0 -55 0 -55 42 0 c24 0 49 7 60 17 17
15 19 15 36 0 26 -24 62 -22 62 3 0 14 7 20 24 20 13 0 31 3 40 6 12 5 16 0
16 -20 0 -16 6 -26 15 -26 8 0 15 9 15 20 0 14 6 20 23 19 12 0 16 -3 10 -6
-7 -2 -13 -13 -13 -24 0 -15 -7 -19 -35 -19 -28 0 -35 4 -35 20 0 13 -7 20
-20 20 -13 0 -20 -7 -20 -20 0 -16 -7 -20 -38 -20 -21 0 -43 5 -50 12 -9 9
-15 9 -24 0 -7 -7 -38 -12 -70 -12 l-58 0 0 65 0 65 64 0 c36 0 68 -5 71 -10
5 -8 11 -8 19 -1 8 7 111 12 267 13 l254 3 3 134 c2 90 -1 138 -9 147 -9 12
-83 14 -415 14 -235 0 -405 -4 -409 -9z"/>
<path d="M13561 503 c1 -32 4 -48 6 -35 2 12 10 22 18 22 7 0 20 3 28 6 10 3
17 -3 21 -21 5 -21 12 -26 34 -23 19 2 28 9 30 26 4 30 16 28 29 -5 11 -28 11
-28 18 -5 9 28 21 28 28 1 7 -25 27 -16 27 12 0 27 18 24 22 -3 2 -17 11 -24
31 -26 32 -4 37 15 5 21 -17 3 -14 5 10 6 24 1 32 -3 33 -16 1 -10 4 -5 8 12
8 40 38 46 43 8 2 -20 9 -29 26 -31 12 -2 22 1 22 7 0 5 -10 12 -22 14 -17 3
-15 5 8 6 20 0 34 -5 38 -14 3 -9 18 -15 36 -15 l30 0 -1 58 c-1 31 -3 49 -6
40 -3 -11 -14 -18 -29 -18 -13 0 -24 -4 -24 -10 0 -5 -7 -10 -15 -10 -8 0 -15
4 -15 9 0 13 -93 10 -103 -3 -6 -8 -10 -7 -14 2 -6 16 -35 16 -51 0 -10 -10
-15 -10 -21 0 -7 11 -9 10 -14 -2 -8 -20 -27 -21 -27 -1 0 8 -4 15 -10 15 -5
0 -10 -7 -10 -15 0 -18 -17 -20 -22 -3 -5 14 -88 23 -88 9 0 -21 -19 -11 -22
12 -2 16 -11 23 -30 25 -28 3 -28 3 -27 -55z"/>
<path d="M7167 509 c-21 -5 -50 -15 -66 -23 -35 -19 -93 -84 -86 -97 4 -5 -1
-16 -9 -25 -20 -19 -21 -44 -2 -44 7 0 19 -7 26 -15 19 -23 64 -19 75 8 8 17
17 22 45 20 52 -3 52 -3 93 3 23 4 37 2 37 -4 0 -6 -15 -12 -32 -14 -41 -4
-40 -21 2 -29 26 -6 32 -3 43 20 10 20 19 26 46 26 41 0 62 -25 42 -49 -8 -9
-29 -16 -47 -16 -24 0 -34 -5 -34 -15 0 -11 11 -15 36 -15 21 0 33 -4 29 -10
-8 -13 -58 -13 -72 1 -8 8 -17 8 -31 0 -26 -14 -69 -14 -77 -1 -4 7 -13 6 -26
-1 -11 -5 -29 -7 -39 -4 -15 5 -20 2 -20 -14 0 -11 -5 -23 -11 -27 -8 -5 -9 8
-4 45 6 42 4 51 -8 51 -8 0 -17 -7 -21 -15 -3 -8 -11 -15 -17 -15 -8 0 -8 4 1
15 11 13 8 15 -18 15 -17 0 -33 -4 -36 -8 -7 -12 13 -82 24 -82 5 0 7 -6 5
-13 -8 -19 51 -83 98 -106 58 -28 153 -29 206 -1 76 38 131 127 131 210 0 145
-145 263 -283 229z"/>
<path d="M3413 470 c-86 -52 -82 -189 6 -235 45 -23 167 -20 208 5 88 54 81
197 -12 236 -52 21 -163 18 -202 -6z m137 -5 c36 -19 60 -62 60 -110 0 -74
-51 -125 -125 -125 -78 0 -133 63 -122 141 12 88 106 136 187 94z"/>
<path d="M12009 482 c-282 -2 -369 -5 -377 -15 -7 -8 -12 -81 -13 -182 l-2
-170 362 -3 362 -2 24 24 c24 25 25 28 25 185 0 88 -3 161 -7 163 -5 2 -173 2
-374 0z m-176 -78 c14 -15 -8 -34 -39 -34 -43 0 -44 -19 -4 -48 38 -28 39 -63
4 -91 -42 -33 -104 -26 -104 11 0 18 5 20 35 15 48 -8 55 10 16 42 -57 47 -32
111 44 111 23 0 44 -3 48 -6z m121 -37 c12 -9 17 -23 14 -47 -3 -33 -5 -35
-48 -40 -29 -3 -40 -8 -32 -13 7 -5 26 -5 43 -2 28 6 30 5 27 -17 -2 -19 -10
-24 -41 -26 -57 -5 -81 20 -74 78 8 67 64 102 111 67z"/>
<path d="M1541 469 c-77 -16 -125 -82 -118 -162 9 -106 116 -169 215 -128 42
18 82 85 82 141 0 48 -38 123 -70 136 -35 15 -77 20 -109 13z"/>
<path d="M4400 425 c-34 -34 -41 -48 -32 -57 9 -9 9 -15 0 -25 -9 -11 -2 -23
32 -58 l44 -45 43 42 c42 41 54 68 32 68 -8 0 -7 5 2 16 11 13 6 22 -32 60
l-45 44 -44 -45z"/>
<path d="M8812 423 c-52 -25 -85 -76 -90 -139 -4 -51 -3 -55 31 -89 30 -30 42
-35 81 -35 57 0 93 17 134 64 81 92 37 216 -76 216 -26 0 -62 -8 -80 -17z m68
-8 c0 -9 7 -18 15 -21 27 -11 17 -35 -12 -32 -39 4 -35 -16 7 -44 45 -30 49
-60 14 -93 -15 -14 -22 -25 -15 -25 20 0 61 32 76 59 8 14 14 20 15 12 0 -19
-72 -87 -100 -94 -16 -4 -24 -1 -27 13 -3 11 -14 22 -24 25 -35 11 -22 35 17
32 47 -3 54 16 14 33 -59 24 -77 90 -29 105 10 4 19 11 19 16 0 16 -57 -19
-85 -53 l-27 -33 20 35 c12 19 40 45 63 58 50 26 59 27 59 7z"/>
<path d="M9903 416 c-39 -34 -39 -98 0 -132 24 -20 37 -24 85 -21 l57 2 0 84
0 84 -57 3 c-49 3 -62 0 -85 -20z"/>
<path d="M10707 424 c-4 -4 -7 -24 -7 -44 0 -21 -6 -43 -14 -49 -12 -10 -13
-6 -9 29 4 26 2 40 -6 40 -6 0 -11 -12 -11 -27 0 -16 -3 -58 -6 -94 -6 -59 -4
-69 15 -88 21 -21 27 -21 371 -21 l350 0 0 100 0 100 -310 0 -309 0 6 30 c7
37 -15 41 -36 8 l-15 -23 -5 23 c-4 13 -9 20 -14 16z m181 -93 c8 -4 13 -17
12 -27 -1 -11 -2 -26 -1 -34 1 -12 3 -13 10 -1 6 9 11 10 15 2 8 -13 46 -15
46 -2 0 5 -7 8 -16 7 -18 -1 -27 29 -18 54 4 10 13 0 29 -30 23 -44 24 -46 64
-42 34 3 41 8 41 25 0 45 48 70 91 47 13 -7 19 -7 19 0 0 14 77 13 82 -1 3 -9
10 -8 24 1 29 18 72 5 86 -25 15 -34 -3 -72 -37 -81 -17 -4 -24 -11 -21 -20 3
-8 -1 -14 -10 -14 -10 0 -14 6 -11 14 3 8 -3 22 -14 32 -10 9 -19 28 -19 41 0
12 -4 23 -10 23 -5 0 -10 -7 -10 -15 0 -8 -7 -15 -15 -15 -8 0 -15 7 -15 15 0
27 -25 16 -27 -12 0 -15 -8 -32 -17 -39 -10 -7 -14 -18 -10 -28 4 -11 1 -16
-11 -16 -11 0 -15 5 -11 15 3 10 -1 15 -14 15 -10 0 -21 4 -24 9 -8 13 -56
-11 -57 -29 -1 -11 -3 -10 -6 3 -6 23 -103 25 -103 2 0 -8 -5 -15 -11 -15 -6
0 -9 7 -5 15 4 12 -4 15 -44 15 -40 0 -48 -3 -44 -15 4 -8 1 -15 -5 -15 -7 0
-11 27 -11 75 l0 75 33 0 c17 0 38 -4 45 -9z"/>
<path d="M790 383 c-60 -22 -68 -81 -15 -115 55 -36 43 -60 -23 -50 -31 4 -33
3 -30 -19 3 -27 30 -35 84 -24 41 7 69 44 60 79 -3 13 -22 33 -42 45 -41 24
-37 41 11 41 35 0 56 27 33 42 -14 9 -55 9 -78 1z"/>
<path d="M422 369 c28 -11 33 -22 68 -156 9 -38 14 -43 38 -43 25 0 31 8 65
88 55 131 53 122 20 122 -26 0 -30 -6 -54 -67 l-26 -68 -14 65 -14 65 -55 2
c-48 2 -51 1 -28 -8z"/>
<path d="M911 281 c-22 -55 -41 -102 -41 -105 0 -16 51 -4 60 14 7 13 21 20
41 20 22 0 32 -5 36 -20 4 -13 14 -20 30 -20 21 0 24 4 20 23 -3 12 -13 59
-23 105 l-17 82 -32 0 c-32 0 -34 -3 -74 -99z"/>
<path d="M6205 353 c-19 -4 -45 -59 -45 -97 0 -24 29 -46 60 -46 35 0 43 12
44 63 1 26 7 43 18 51 25 16 41 -5 44 -56 1 -24 2 -46 3 -50 1 -5 16 -8 34 -8
34 0 67 24 67 50 0 28 -36 89 -55 94 -22 6 -138 6 -170 -1z"/>
<path d="M13788 354 c-21 -6 -19 -1 -23 -79 -2 -33 -10 -93 -18 -132 l-15 -73
29 0 c31 0 34 4 44 63 5 33 9 37 35 37 72 0 120 42 120 105 0 58 -24 78 -98
81 -31 2 -65 0 -74 -2z"/>
<path d="M13623 275 c-67 -29 -94 -125 -52 -179 19 -24 27 -27 78 -24 53 3 56
4 59 31 3 27 2 27 -35 21 -28 -4 -42 -2 -51 9 -10 12 -5 15 35 20 79 9 110 74
57 116 -31 24 -47 25 -91 6z"/>
<path d="M13998 279 c-10 -5 -18 -19 -18 -30 0 -18 4 -20 30 -14 16 3 37 2 46
-3 13 -7 7 -11 -26 -16 -75 -12 -126 -89 -85 -129 10 -10 37 -15 88 -15 l73 0
12 77 c15 98 16 97 -8 121 -22 22 -82 27 -112 9z"/>
<path d="M14140 275 c0 -3 9 -47 21 -98 l20 -92 -25 -21 c-13 -12 -30 -24 -36
-26 -6 -2 -8 -11 -5 -21 12 -29 59 -21 92 16 25 29 133 224 133 241 0 3 -15 6
-33 6 -30 0 -34 -4 -52 -50 -20 -52 -38 -60 -43 -19 -7 61 -12 69 -42 69 -17
0 -30 -2 -30 -5z"/>
</g>
</svg>
